<svg id="b8879861-c722-4ceb-852d-bfa4ef195bbb" data-name="Ebene 1" xmlns="http://www.w3.org/2000/svg" xmlns:xlink="http://www.w3.org/1999/xlink" width="203.5mm" height="25.31mm" viewBox="0 0 576.84 71.75"><defs><style>.b8c5ec3e-e0e9-45a3-972a-ae8c49650ca6,.fec8d85d-0471-43e5-bf26-9fa4eeaeb720{fill:none;}.ee2448dc-c2f0-48c2-a95e-c2089adbf56f{clip-path:url(#e142e048-3935-4a19-b0a1-5e3ff0ae02e0);}.af91079f-bd55-4835-85dd-68685d093c52{fill:#202e53;}.ed1d9144-9943-407f-8cd9-6875231f08d9{clip-path:url(#fdc0ffb3-fe48-422f-ac80-773c2fd8d235);}.e5abbf21-bd33-4f0d-9d43-7477ca701a77{fill:#667b9a;}.b8c5ec3e-e0e9-45a3-972a-ae8c49650ca6{stroke:#667b9a;stroke-linecap:round;stroke-miterlimit:10;}.f302255a-aeeb-42e8-88a5-842e5b729e11{isolation:isolate;}</style><clipPath id="e142e048-3935-4a19-b0a1-5e3ff0ae02e0" transform="translate(0 0)"><rect class="fec8d85d-0471-43e5-bf26-9fa4eeaeb720" width="278.9" height="72.34"/></clipPath><clipPath id="fdc0ffb3-fe48-422f-ac80-773c2fd8d235" transform="translate(0 0)"><rect class="fec8d85d-0471-43e5-bf26-9fa4eeaeb720" width="42.03" height="26.17"/></clipPath></defs><g class="ee2448dc-c2f0-48c2-a95e-c2089adbf56f"><g class="ee2448dc-c2f0-48c2-a95e-c2089adbf56f"><path class="af91079f-bd55-4835-85dd-68685d093c52" d="M95.56,71.23c0,.23,0,.35-.13.35-1.39,0-2.49,0-3.31-.06l-4.55-.06-4.6.06c-.78,0-1.85.06-3.2.06-.12,0-.18-.12-.18-.35s.06-.36.18-.36a7,7,0,0,0,3.5-.59c.62-.39.92-1.21.92-2.47l-.06-1L82.84,42.7,70.19,71.17a.49.49,0,0,1-.49.23.53.53,0,0,1-.49-.23L53.67,42.82l-.49,21.27a7.72,7.72,0,0,0,1.32,5,4.63,4.63,0,0,0,3.9,1.8q.18,0,.18.36c0,.23-.06.35-.18.35q-1.65,0-2.58-.06l-3.38-.06-3.87.06q-1,.06-2.64.06c-.12,0-.18-.12-.18-.35s.06-.36.18-.36a4.9,4.9,0,0,0,4-1.82,8,8,0,0,0,1.53-5L52,39.7v-.06a10.21,10.21,0,0,0-2.55-3.18,4.86,4.86,0,0,0-3-1c-.12,0-.18-.11-.18-.35s.06-.35.18-.35l2.89.06h5.47q.7-.06,1.41-.06a1.49,1.49,0,0,1,1.23.53A27,27,0,0,1,59,37.81l13.39,24.1L84,36.22a3.11,3.11,0,0,1,.77-1.15,1.65,1.65,0,0,1,1.07-.32q.55,0,1.26.06h5.25c.58,0,1.39-.06,2.46-.06.12,0,.18.11.18.35s-.06.35-.18.35a6.35,6.35,0,0,0-4.18,1.12,4,4,0,0,0-1.16,3.48L91,66.81a8.89,8.89,0,0,0,.46,2.65,1.88,1.88,0,0,0,1.23,1.12,9.71,9.71,0,0,0,2.79.29c.08,0,.13.12.13.36" transform="translate(0 0)"/><path class="af91079f-bd55-4835-85dd-68685d093c52" d="M111.06,69.31a2.54,2.54,0,0,0,1.63,1.21,15,15,0,0,0,3.84.35q.18,0,.18.36c0,.23-.06.35-.18.35q-2.52,0-3.93-.06l-5.35-.06-4.48.06c-.82,0-1.92.06-3.31.06-.13,0-.19-.12-.19-.35s.06-.36.19-.36a10.12,10.12,0,0,0,2.85-.29,1.84,1.84,0,0,0,1.2-1.15,8.59,8.59,0,0,0,.31-2.62V39.52a8.11,8.11,0,0,0-.31-2.59,1.9,1.9,0,0,0-1.23-1.15,9,9,0,0,0-2.82-.33c-.13,0-.19-.11-.19-.35s.06-.35.19-.35l3.25.06c1.88.07,3.38.11,4.48.11s2.15-.06,3.5-.17l2-.12c.82,0,1.76-.06,2.83-.06q6.26,0,9.88,2.5c2.42,1.67,3.63,4.26,3.63,7.75A9.81,9.81,0,0,1,127,51a12.17,12.17,0,0,1-5,3.83,16.14,16.14,0,0,1-6.35,1.3,12.78,12.78,0,0,1-2.89-.3c-.08,0-.12-.09-.12-.29a.73.73,0,0,1,.09-.35c.06-.12.13-.16.22-.12a8.56,8.56,0,0,0,2.08.23,5.63,5.63,0,0,0,4.7-2.53c1.25-1.69,1.88-4.08,1.88-7.19s-.69-5.5-2.06-7.19a7.27,7.27,0,0,0-6-2.53,2.86,2.86,0,0,0-2.33.76,5.06,5.06,0,0,0-.62,3V66.57a6.57,6.57,0,0,0,.43,2.74" transform="translate(0 0)"/><path class="af91079f-bd55-4835-85dd-68685d093c52" d="M141.22,69a17.94,17.94,0,0,1-6.88-7,19.44,19.44,0,0,1-2.43-9.58,17.06,17.06,0,0,1,3.2-10.4,19.72,19.72,0,0,1,8.2-6.51,25.35,25.35,0,0,1,10.22-2.18A19.74,19.74,0,0,1,163.79,36a18.1,18.1,0,0,1,6.78,6.92,18.62,18.62,0,0,1,2.37,9.14A17.56,17.56,0,0,1,170,61.9a20.93,20.93,0,0,1-7.9,7.1,22.76,22.76,0,0,1-10.72,2.6A20.08,20.08,0,0,1,141.22,69m18.36-.82a12.52,12.52,0,0,0,4.27-5.6,23.05,23.05,0,0,0,1.53-8.81,25.73,25.73,0,0,0-1.72-9.7,15.13,15.13,0,0,0-5-6.68A12.4,12.4,0,0,0,151.07,35a10,10,0,0,0-8.59,4q-3,4-3,11.28a27.3,27.3,0,0,0,1.81,10.23,16.83,16.83,0,0,0,5,7A11.13,11.13,0,0,0,153.45,70a10.55,10.55,0,0,0,6.17-1.91" transform="translate(0 0)"/><path class="af91079f-bd55-4835-85dd-68685d093c52" d="M182.79,43.81a12.11,12.11,0,0,0,2.79,2.88q1.66,1.25,4.48,3,3.08,1.89,4.92,3.3a13,13,0,0,1,3.13,3.45,8.59,8.59,0,0,1,1.29,4.68,9.06,9.06,0,0,1-1.72,5.46,11.26,11.26,0,0,1-4.76,3.71,17,17,0,0,1-6.79,1.32,24.39,24.39,0,0,1-5.77-.73,10.43,10.43,0,0,1-4.05-1.62,2.45,2.45,0,0,1-.46-.45,1.06,1.06,0,0,1-.16-.67l-.18-9.37v-.06c0-.16.1-.25.31-.27a.3.3,0,0,1,.37.21h0c1.22,2.4,2.3,4.34,3.22,5.83a15.4,15.4,0,0,0,3.5,4,7.42,7.42,0,0,0,4.82,1.71,6.27,6.27,0,0,0,4.05-1.27c1.07-.84,1.6-2.28,1.6-4.33a8.42,8.42,0,0,0-1.2-4.54,12.57,12.57,0,0,0-2.91-3.3,57.18,57.18,0,0,0-4.73-3.24A51.06,51.06,0,0,1,180,50.35a12.78,12.78,0,0,1-2.79-3.12,8.42,8.42,0,0,1,.7-9.58,11.05,11.05,0,0,1,4.83-3.18,18.64,18.64,0,0,1,6.2-1,25.5,25.5,0,0,1,4.36.38,19,19,0,0,1,3.56.91,1.87,1.87,0,0,1,.74.5,1.16,1.16,0,0,1,.18.68V44.6c0,.12-.1.21-.31.27s-.32,0-.36-.09l-.5-1.12A26.37,26.37,0,0,0,193,37.32a6.93,6.93,0,0,0-5.74-2.59,5.88,5.88,0,0,0-4,1.36A4.9,4.9,0,0,0,181.65,40a6.51,6.51,0,0,0,1.14,3.77" transform="translate(0 0)"/><path class="af91079f-bd55-4835-85dd-68685d093c52" d="M201.93,45.24c0,.11-.16.16-.37.14s-.3-.09-.3-.2c.16-1.57.34-3.61.55-6.1s.31-4.37.31-5.63q0-.3.33-.3c.23,0,.34.1.34.3,0,.86,1.17,1.3,3.5,1.3q5.28.16,12.35.17,3.62,0,7.67-.12h4.18a14,14,0,0,0,3.41-.3,1.9,1.9,0,0,0,1.38-1.18c0-.15.17-.23.4-.23s.34.08.34.23c-.13,1.18-.27,3.07-.4,5.66s-.22,4.68-.22,6.25c0,.11-.1.17-.3.17s-.33-.06-.37-.17a12.1,12.1,0,0,0-3.44-6.81,9,9,0,0,0-6.2-2.27,3,3,0,0,0-2.37.74,4.71,4.71,0,0,0-.58,2.8V66.81a6.82,6.82,0,0,0,.37,2.65,2,2,0,0,0,1.41,1.12,13.64,13.64,0,0,0,3.31.29c.13,0,.19.12.19.35s-.06.36-.19.36c-1.47,0-2.64,0-3.5-.06l-5.09-.06-5,.06c-.86,0-2,.06-3.56.06q-.18,0-.18-.36c0-.23.06-.35.18-.35a14,14,0,0,0,3.29-.29,2.14,2.14,0,0,0,1.47-1.15,6.51,6.51,0,0,0,.4-2.62V39.52a4.73,4.73,0,0,0-.55-2.71,2.84,2.84,0,0,0-2.28-.71q-7.31,0-10.5,9.14" transform="translate(0 0)"/><path class="af91079f-bd55-4835-85dd-68685d093c52" d="M247.18,69a17.94,17.94,0,0,1-6.88-7,19.44,19.44,0,0,1-2.43-9.58,17.06,17.06,0,0,1,3.2-10.4,19.72,19.72,0,0,1,8.2-6.51,25.35,25.35,0,0,1,10.22-2.18A19.74,19.74,0,0,1,269.75,36a18.1,18.1,0,0,1,6.78,6.92,18.62,18.62,0,0,1,2.37,9.14A17.62,17.62,0,0,1,276,61.9a20.89,20.89,0,0,1-7.94,7.1,22.76,22.76,0,0,1-10.72,2.6A20.08,20.08,0,0,1,247.18,69m18.36-.82a12.52,12.52,0,0,0,4.27-5.6,23.05,23.05,0,0,0,1.53-8.81,25.73,25.73,0,0,0-1.72-9.7,15.13,15.13,0,0,0-5-6.68A12.35,12.35,0,0,0,257,35a10,10,0,0,0-8.59,4q-3,4-3,11.28a27.3,27.3,0,0,0,1.81,10.23,16.83,16.83,0,0,0,5,7A11.13,11.13,0,0,0,259.38,70a10.55,10.55,0,0,0,6.17-1.91" transform="translate(0 0)"/><g class="ed1d9144-9943-407f-8cd9-6875231f08d9"><path class="e5abbf21-bd33-4f0d-9d43-7477ca701a77" d="M.32,1.4A32,32,0,0,1,7.89,2a4.92,4.92,0,0,1,3.3,2.27,12,12,0,0,1,.89,5.12V26.17S30.58,4.64,30.82,4.38A6.74,6.74,0,0,1,34.14,2.1a28.85,28.85,0,0,1,7.41-.7c.32,0,.49-.23.49-.7s-.17-.7-.49-.7L33.34.12q-7.41.23-12.4.23Q16.42.35,9,.12L.32,0C.11,0,0,.23,0,.7s.11.7.32.7" transform="translate(0 0)"/></g><path class="af91079f-bd55-4835-85dd-68685d093c52" d="M41.55,70.36a34.22,34.22,0,0,1-7.49-.59,4.4,4.4,0,0,1-3.14-2.21,12.5,12.5,0,0,1-.8-5.24V13.76l-18,21V62.32a11.65,11.65,0,0,1-.89,5.18,4.66,4.66,0,0,1-3.3,2.27,34.9,34.9,0,0,1-7.57.59c-.21,0-.32.23-.32.7s.11.69.32.69c3.65,0,6.55,0,8.7-.11L21,71.52l12.24.12c2,.08,4.83.11,8.37.11q.48,0,.48-.69c0-.47-.16-.7-.48-.7" transform="translate(0 0)"/></g></g><line class="b8c5ec3e-e0e9-45a3-972a-ae8c49650ca6" x1="298.9" y1="71.04" x2="298.9" y2="33.5"/><g class="f302255a-aeeb-42e8-88a5-842e5b729e11"><g class="f302255a-aeeb-42e8-88a5-842e5b729e11"><path class="af91079f-bd55-4835-85dd-68685d093c52" d="M318.45,51.88c0-11.31,8.63-19.77,20.11-19.77,5.15,0,10,1.63,13.33,5l-.68.78c-3.58-3.42-7.89-4.7-12.65-4.7-10.81,0-19,8.12-19,18.7s8.18,18.7,19,18.7a17.52,17.52,0,0,0,12.65-4.76l.68.79a18.63,18.63,0,0,1-13.33,5C327.08,71.65,318.45,63.19,318.45,51.88Z" transform="translate(0 0)"/></g><g class="f302255a-aeeb-42e8-88a5-842e5b729e11"><path class="af91079f-bd55-4835-85dd-68685d093c52" d="M376.42,32.28h1.12V70.42h23.35v1.06H376.42Z" transform="translate(0 0)"/></g><g class="f302255a-aeeb-42e8-88a5-842e5b729e11"><path class="af91079f-bd55-4835-85dd-68685d093c52" d="M417.91,51.88c0-11.31,8.63-19.77,20.11-19.77s20.1,8.46,20.1,19.77S449.5,71.65,438,71.65,417.91,63.19,417.91,51.88Zm39.09,0c0-10.7-8.17-18.7-19-18.7s-19,8-19,18.7,8.18,18.7,19,18.7S457,62.58,457,51.88Z" transform="translate(0 0)"/><path class="af91079f-bd55-4835-85dd-68685d093c52" d="M482.54,55.07V32.28h1.12V55c0,10.47,5.09,15.56,14,15.56s14-5.09,14-15.56V32.28h1.12V55.07c0,11.09-5.77,16.58-15.12,16.58S482.54,66.16,482.54,55.07Z" transform="translate(0 0)"/><path class="af91079f-bd55-4835-85dd-68685d093c52" d="M541.34,32.28h14.84c12.37,0,20.66,8.29,20.66,19.6s-8.29,19.6-20.66,19.6H541.34Zm14.73,38.14c12,0,19.65-7.84,19.65-18.54s-7.67-18.54-19.65-18.54H542.46V70.42Z" transform="translate(0 0)"/></g></g></svg>