<svg id="Ebene_1" data-name="Ebene 1" xmlns="http://www.w3.org/2000/svg" xmlns:xlink="http://www.w3.org/1999/xlink" viewBox="0 0 594.14 85.99"><defs><style>.cls-1{fill:none;}.cls-2,.cls-6{fill:#c1c1c1;}.cls-3{clip-path:url(#clip-path);}.cls-4,.cls-5{fill:#667b9a;}.cls-5{stroke:#667b9a;stroke-linecap:round;stroke-miterlimit:10;}.cls-6{font-size:56px;font-family:Montserrat-Thin, Montserrat;font-weight:200;letter-spacing:0.25em;}.cls-7{letter-spacing:0.24em;}.cls-8{letter-spacing:0.25em;}</style><clipPath id="clip-path"><rect class="cls-1" width="42.03" height="26.17"/></clipPath></defs><path class="cls-2" d="M95.56,71.23c0,.23,0,.35-.13.35-1.39,0-2.49,0-3.31-.06l-4.55-.06-4.6.06c-.78,0-1.85.06-3.2.06-.12,0-.18-.12-.18-.35s.06-.36.18-.36a7,7,0,0,0,3.5-.59c.62-.39.92-1.21.92-2.47l-.06-1L82.84,42.7,70.19,71.17a.5.5,0,0,1-.49.23.51.51,0,0,1-.49-.23L53.67,42.82l-.49,21.27a7.72,7.72,0,0,0,1.32,5,4.63,4.63,0,0,0,3.9,1.8q.18,0,.18.36c0,.23-.06.35-.18.35q-1.65,0-2.58-.06l-3.38-.06-3.87.06q-1,.06-2.64.06c-.12,0-.18-.12-.18-.35s.06-.36.18-.36a4.9,4.9,0,0,0,4-1.82,8,8,0,0,0,1.53-5L52,39.7,52,39.64a10.11,10.11,0,0,0-2.55-3.18,4.88,4.88,0,0,0-3-1c-.12,0-.18-.11-.18-.35s.06-.35.18-.35l2.89.06c.57,0,1.31,0,2.21,0l3.26,0a13.29,13.29,0,0,1,1.41-.06,1.48,1.48,0,0,1,1.23.53A25.86,25.86,0,0,1,59,37.81l13.39,24.1L84,36.22a3.16,3.16,0,0,1,.77-1.15,1.66,1.66,0,0,1,1.07-.32q.56,0,1.26.06c.47,0,1,0,1.63,0l3.62,0c.58,0,1.39-.06,2.46-.06.12,0,.18.11.18.35s-.06.35-.18.35a6.35,6.35,0,0,0-4.18,1.12,4,4,0,0,0-1.16,3.48L91,66.81a9,9,0,0,0,.46,2.65,1.89,1.89,0,0,0,1.23,1.12,9.86,9.86,0,0,0,2.79.29c.08,0,.13.12.13.36"/><path class="cls-2" d="M111.06,69.31a2.51,2.51,0,0,0,1.63,1.21,15.22,15.22,0,0,0,3.84.35q.18,0,.18.36c0,.23-.06.35-.18.35q-2.52,0-3.93-.06l-5.35-.06-4.48.06c-.82,0-1.92.06-3.31.06-.13,0-.19-.12-.19-.35s.06-.36.19-.36a10.2,10.2,0,0,0,2.85-.29,1.84,1.84,0,0,0,1.2-1.15,8.45,8.45,0,0,0,.31-2.62V39.52a8.1,8.1,0,0,0-.31-2.59,1.91,1.91,0,0,0-1.23-1.15,9,9,0,0,0-2.82-.33c-.13,0-.19-.11-.19-.35s.06-.35.19-.35l3.25.06c1.88.07,3.38.11,4.48.11s2.15-.06,3.5-.17l2-.12c.82,0,1.76-.06,2.83-.06q6.26,0,9.88,2.5c2.42,1.67,3.63,4.26,3.63,7.75a9.8,9.8,0,0,1-2,6.19A12.22,12.22,0,0,1,122,54.84a16.18,16.18,0,0,1-6.35,1.3,12.28,12.28,0,0,1-2.89-.3c-.08,0-.12-.09-.12-.29a.73.73,0,0,1,.09-.35c.06-.12.13-.16.22-.12a8.28,8.28,0,0,0,2.08.23,5.63,5.63,0,0,0,4.7-2.53q1.88-2.53,1.88-7.19t-2.06-7.19a7.26,7.26,0,0,0-6-2.53,2.87,2.87,0,0,0-2.33.76,5.11,5.11,0,0,0-.62,3V66.57a6.56,6.56,0,0,0,.43,2.74"/><path class="cls-2" d="M141.22,69a17.88,17.88,0,0,1-6.88-7,19.46,19.46,0,0,1-2.43-9.58,17.05,17.05,0,0,1,3.2-10.4,19.79,19.79,0,0,1,8.2-6.51,25.22,25.22,0,0,1,10.22-2.18A19.73,19.73,0,0,1,163.79,36a18.08,18.08,0,0,1,6.78,6.92,18.68,18.68,0,0,1,2.37,9.14A17.57,17.57,0,0,1,170,61.9,20.9,20.9,0,0,1,162.1,69a22.74,22.74,0,0,1-10.72,2.6A20,20,0,0,1,141.22,69m18.36-.82a12.58,12.58,0,0,0,4.27-5.6,22.92,22.92,0,0,0,1.53-8.81,25.73,25.73,0,0,0-1.72-9.7,15.08,15.08,0,0,0-5-6.68A12.38,12.38,0,0,0,151.07,35a10,10,0,0,0-8.59,4q-3,4-3,11.28a27.24,27.24,0,0,0,1.81,10.23,16.85,16.85,0,0,0,5,7,11.15,11.15,0,0,0,7.16,2.53,10.54,10.54,0,0,0,6.17-1.91"/><path class="cls-2" d="M182.79,43.81a12.09,12.09,0,0,0,2.79,2.88q1.66,1.25,4.48,3,3.08,1.89,4.92,3.3a13.11,13.11,0,0,1,3.13,3.45,8.55,8.55,0,0,1,1.29,4.68,9.1,9.1,0,0,1-1.72,5.46,11.3,11.3,0,0,1-4.76,3.71,16.89,16.89,0,0,1-6.79,1.32,24.32,24.32,0,0,1-5.77-.73,10.54,10.54,0,0,1-4.05-1.62,2.19,2.19,0,0,1-.46-.45,1.06,1.06,0,0,1-.16-.67l-.18-9.37v-.06c0-.16.1-.25.31-.27a.3.3,0,0,1,.37.21c1.22,2.4,2.3,4.34,3.22,5.83a15.45,15.45,0,0,0,3.5,4,7.46,7.46,0,0,0,4.82,1.71,6.27,6.27,0,0,0,4.05-1.27c1.07-.84,1.6-2.28,1.6-4.33a8.48,8.48,0,0,0-1.2-4.54,12.65,12.65,0,0,0-2.91-3.3q-1.72-1.35-4.73-3.24A50.94,50.94,0,0,1,180,50.35a12.86,12.86,0,0,1-2.79-3.12,8.43,8.43,0,0,1,.7-9.58,11.09,11.09,0,0,1,4.83-3.18,18.54,18.54,0,0,1,6.2-1,25.11,25.11,0,0,1,4.36.38,18.73,18.73,0,0,1,3.56.91,1.84,1.84,0,0,1,.74.5,1.21,1.21,0,0,1,.18.68v8.66c0,.12-.1.21-.31.27s-.32,0-.36-.09l-.5-1.12A26.28,26.28,0,0,0,193,37.32a6.93,6.93,0,0,0-5.74-2.59,5.88,5.88,0,0,0-4,1.36A4.92,4.92,0,0,0,181.65,40a6.48,6.48,0,0,0,1.14,3.77"/><path class="cls-2" d="M201.93,45.24c0,.11-.16.16-.37.14s-.3-.09-.3-.2c.16-1.57.34-3.61.55-6.1s.31-4.37.31-5.63q0-.3.33-.3c.23,0,.34.1.34.3,0,.86,1.17,1.3,3.5,1.3q5.28.16,12.35.17,3.62,0,7.67-.12l4.18,0a14,14,0,0,0,3.41-.3,1.88,1.88,0,0,0,1.38-1.18c0-.15.17-.23.4-.23s.34.08.34.23q-.2,1.77-.4,5.66c-.15,2.59-.22,4.68-.22,6.25,0,.11-.1.17-.3.17s-.33-.06-.37-.17a12.11,12.11,0,0,0-3.44-6.81,9,9,0,0,0-6.2-2.27,3,3,0,0,0-2.37.74,4.75,4.75,0,0,0-.58,2.8V66.81a6.9,6.9,0,0,0,.37,2.65,2,2,0,0,0,1.41,1.12,13.7,13.7,0,0,0,3.31.29c.13,0,.19.12.19.35s-.06.36-.19.36c-1.47,0-2.64,0-3.5-.06l-5.09-.06-5,.06c-.86,0-2,.06-3.56.06q-.18,0-.18-.36c0-.23.06-.35.18-.35a13.91,13.91,0,0,0,3.29-.29,2.17,2.17,0,0,0,1.47-1.15,6.46,6.46,0,0,0,.4-2.62V39.52a4.74,4.74,0,0,0-.55-2.71,2.83,2.83,0,0,0-2.28-.71q-7.31,0-10.5,9.14"/><path class="cls-2" d="M247.18,69a17.88,17.88,0,0,1-6.88-7,19.46,19.46,0,0,1-2.43-9.58,17.05,17.05,0,0,1,3.2-10.4,19.79,19.79,0,0,1,8.2-6.51,25.22,25.22,0,0,1,10.22-2.18A19.73,19.73,0,0,1,269.75,36a18.08,18.08,0,0,1,6.78,6.92,18.68,18.68,0,0,1,2.37,9.14A17.57,17.57,0,0,1,276,61.9,20.9,20.9,0,0,1,268.06,69a22.74,22.74,0,0,1-10.72,2.6A20,20,0,0,1,247.18,69m18.36-.82a12.58,12.58,0,0,0,4.27-5.6,22.92,22.92,0,0,0,1.53-8.81,25.73,25.73,0,0,0-1.72-9.7,15.08,15.08,0,0,0-5-6.68A12.38,12.38,0,0,0,257,35a10,10,0,0,0-8.59,4q-3,4-3,11.28a27.24,27.24,0,0,0,1.81,10.23,16.85,16.85,0,0,0,5,7,11.15,11.15,0,0,0,7.16,2.53,10.54,10.54,0,0,0,6.17-1.91"/><g class="cls-3"><path class="cls-4" d="M.32,1.4A32.11,32.11,0,0,1,7.89,2a4.91,4.91,0,0,1,3.3,2.27,11.88,11.88,0,0,1,.89,5.12V26.17S30.58,4.64,30.82,4.38A6.75,6.75,0,0,1,34.14,2.1a28.62,28.62,0,0,1,7.41-.7c.32,0,.49-.23.49-.7s-.17-.7-.49-.7L33.34.12q-7.41.23-12.4.23Q16.42.35,9,.12L.32,0C.11,0,0,.23,0,.7s.11.7.32.7"/></g><path class="cls-2" d="M41.55,70.36a34,34,0,0,1-7.49-.59,4.4,4.4,0,0,1-3.14-2.21,12.51,12.51,0,0,1-.8-5.24V13.76l-18,21V62.32a11.58,11.58,0,0,1-.89,5.18,4.67,4.67,0,0,1-3.3,2.27,35.16,35.16,0,0,1-7.57.59c-.21,0-.32.23-.32.7s.11.69.32.69c3.65,0,6.55,0,8.7-.11l11.92-.12,12.24.12c2,.08,4.83.11,8.37.11q.48,0,.48-.69c0-.47-.16-.7-.48-.7"/><line class="cls-5" x1="298.9" y1="71.04" x2="298.9" y2="33.5"/><text class="cls-6" transform="translate(315.15 71.48)">C<tspan class="cls-7" x="53.82" y="0">L</tspan><tspan class="cls-8" x="99.46" y="0">OUD</tspan></text></svg>