<svg xmlns="http://www.w3.org/2000/svg" width="500" height="500" style="width:100%;height:100%;transform:translate3d(0,0,0)"><defs><clipPath id="a"><path d="M0 0h500v500H0z"/></clipPath></defs><g clip-path="url(#a)"><g style="display:block"><path fill="#F6A500" d="m363.242 276.774.692-1.058.694-1.046 1.545-2.352a.628.628 0 0 0-.172-.871.608.608 0 0 0-.856.176l-2.359 3.579-.709 1.077a20.183 20.183 0 0 0-7.38-1.374c-2.633 0-5.137.493-7.379 1.374l-.705-1.076-.699-1.057-1.657-2.521a.618.618 0 0 0-.862-.176.637.637 0 0 0-.173.871l1.544 2.353.694 1.047.697 1.054c-5.265 2.487-8.827 7.412-8.827 12.58h34.734c0-5.168-3.561-10.093-8.822-12.58zm-15.989 7.562c-1.031 0-1.862-.845-1.862-1.888a1.87 1.87 0 0 1 1.862-1.883 1.87 1.87 0 0 1 1.862 1.883c0 1.043-.832 1.888-1.862 1.888zm14.889 0a1.875 1.875 0 0 1-1.863-1.888c0-1.042.833-1.883 1.863-1.883a1.87 1.87 0 0 1 1.86 1.883c0 1.043-.832 1.888-1.86 1.888z"/><path fill="#F6A500" d="M364.002 282.447c0 1.043-.832 1.888-1.86 1.888a1.875 1.875 0 0 1-1.864-1.888c0-.565.249-1.064.637-1.409a36.385 36.385 0 0 0-6.219-.528c-2.17 0-4.256.187-6.219.528.389.344.638.844.638 1.409 0 1.043-.833 1.888-1.861 1.888-1.031 0-1.861-.845-1.861-1.888 0-.267.055-.52.154-.75-2.976.814-5.532 2.004-7.462 3.464-.486 1.33-.755 3.159-.755 4.193h34.734c0-1.034-.269-2.862-.754-4.191-1.929-1.462-4.487-2.654-7.46-3.468.097.231.152.486.152.752z"/></g><g style="display:block"><path fill="#F6A500" d="M165.365 191.13c5.228-.784 10.025 2.3 10.713 6.89.689 4.588-2.992 8.946-8.22 9.73-5.229.784-10.025-2.301-10.714-6.89-.688-4.59 2.992-8.946 8.22-9.73z"/><path fill="#253138" d="M167.842 207.641c5.186-.778 8.847-5.072 8.232-9.62h.004c.689 4.588-2.992 8.946-8.22 9.73-5.229.784-10.025-2.301-10.714-6.89h.004c.747 4.528 5.507 7.558 10.694 6.78z"/><path fill="#F6A500" d="M165.365 191.13c-5.229.784-8.91 5.14-8.22 9.73l18.933-2.84c-.688-4.59-5.485-7.674-10.713-6.89z"/><path fill="#F6A500" d="M166.25 197.036c.688-.103 1.32.302 1.41.907.091.603-.394 1.176-1.081 1.28-.689.103-1.32-.303-1.41-.907-.091-.604.393-1.177 1.082-1.28z"/><path fill="#FFF" d="m157.144 200.861 18.934-2.84.017.108-18.934 2.84-.017-.108zM165.381 191.24c5.187-.778 9.946 2.252 10.693 6.78h.004c-.688-4.589-5.485-7.674-10.713-6.89-5.229.785-8.91 5.141-8.22 9.73h.003c-.614-4.549 3.046-8.842 8.233-9.62z"/><path fill="#D6EEFD" d="m168.626 199.138-2.303.345 7.196 8.03 1.454.482c.04.012.084.017.13.01.137-.02.234-.135.216-.256l-.205-1.37-6.488-7.241z"/><path fill="#D6EEFD" d="M171.593 198.692c.363 2.415-1.574 4.71-4.327 5.122a5.58 5.58 0 0 1-2.343-.14l1.753-3.796.222-.481-2.301.345-4.08 8.826.206 1.37c.018.121.145.202.282.182a.293.293 0 0 0 .12-.048l1.25-.888 1.777-3.844a7.83 7.83 0 0 0 3.377.224c3.853-.578 6.564-3.79 6.057-7.17l-1.993.298z"/><path fill="#062F42" d="m168.263 195.168-1.246.187-.197-1.313-1.993.3.197 1.311-1.246.187c-.41.062-.702.408-.648.768l.492 3.28 2.785 1.79c.153.097.35.144.557.113a.806.806 0 0 0 .5-.271l2.137-2.529-.492-3.28c-.054-.36-.435-.605-.846-.543zm-1.685 4.053c-.687.103-1.32-.302-1.41-.906-.09-.604.395-1.177 1.082-1.28.688-.103 1.32.302 1.41.907.091.603-.394 1.176-1.082 1.28z"/></g><g style="display:block"><path fill="#E9B59A" d="M205.939 234.393h80.26c1.593-4.417 3.047-8.703 3.962-11.961 1.081-3.852.816-24.971.816-24.971s-21.117-9.477-22.529-10.754c-6.924-6.26-8.546-33.612-8.546-33.612h-26.638s-1.389 23.233-7.016 33.118c-1.405 2.467-23.193 12.065-23.434 11.248l.421 22.905 2.704 14.027z"/><path fill="#D29173" d="M263.946 178c-3.172-10.305-4.044-24.904-4.044-24.904h-26.637s-1.281 21.34-6.343 31.816c12.553-.731 25.341-2.58 37.024-6.912z"/><path fill="#E9B59A" d="M267.39 146.499s-.28-8.841 7.12-8.508c4.723.212 5.026 4.548 1.265 10.083-1.584 2.33-1.816 7.649-3.765 9.33-2.37 2.048-4.281-1.19-4.973-2.662-1.141-2.437.353-8.243.353-8.243z"/><path fill="#D29173" d="M272.131 141.927c1.396-1.934 3.114-.645 3.866 1.182.752 1.826-.966 4.189-.966 4.189s.966-3.33-.43-4.19c-1.397-.86-4.826 1.59-3.649 3.91 1.179 2.32 2.898 2.536 1.824 3.718-1.075 1.18.107 2.47-1.719 3.007-1.826.538-.967-.43-1.074-3.222-.108-2.793-.108 0 .107-2.793s.839-4.137 2.041-5.801z"/><path fill="#E9B59A" d="M225.773 146.499s.281-8.841-7.12-8.508c-4.722.212-5.026 4.548-1.265 10.083 1.584 2.33 1.816 7.649 3.765 9.33 2.37 2.048 4.282-1.19 4.972-2.662 1.143-2.437-.352-8.243-.352-8.243z"/><path fill="#D29173" d="M221.033 141.927c-1.396-1.934-3.115-.645-3.867 1.182-.752 1.826.967 4.189.967 4.189s-.967-3.33.429-4.19c1.397-.86 4.827 1.59 3.649 3.91-1.178 2.32-2.897 2.536-1.823 3.718 1.075 1.18-.107 2.47 1.719 3.007 1.826.538.967-.43 1.074-3.222.108-2.793.108 0-.107-2.793s-.839-4.137-2.041-5.801z"/><path fill="#E9B59A" d="M274.139 129.24c-.223 2.864-.817 4.719-1.623 8.969-.19 1.023-.4 2.192-.613 3.549-1.682 10.584-4.39 17.855-5.259 19.993-1.435 3.549-8.194 11.447-11.822 13.51-3.628 2.064-10.619 2.168-14.187 0-3.568-2.166-10.828-7.22-12.16-10.808-.817-2.204-5.804-13.25-7.191-24.054a102.592 102.592 0 0 0-.463-3.236c-.667-4.212-1.2-5.88-1.335-8.705-.423-8.968 9.849-21.855 27.645-21.6 21.048.3 27.694 13.43 27.008 22.383z"/><path fill="#D29173" d="M228.564 117.293s9.537 7.134 32.577 1.66c1.811-.43 6.335-3.91 6.335-3.91s-9.084-4.921-22.242-5.012c-13.157-.091-16.67 7.262-16.67 7.262z"/><path fill="#2D353C" d="M272.517 138.208c-.19 1.023-.402 2.192-.615 3.549-1.681 10.584-3.826 24.977-4.696 27.116-1.433 3.548-7.491 6.55-11.12 8.615-3.628 2.064-14.271 2.038-17.839-.13-3.567-2.166-11.629-5.497-12.961-9.085-.818-2.204-2.616-17.07-4.002-27.875a105.34 105.34 0 0 0-.464-3.236l1.483-2.147s1.122 11.149 5.067 15.982c3.94 4.827 5.983 6.957 5.983 6.957s5.442-2.448 13.679-2.448c6.758 0 12.097 2.819 12.097 2.819s2.538-2.08 6.62-6.793c4.082-4.718 5.151-15.82 5.151-15.82l1.617 2.496z"/><path fill="#2D353C" d="M275.513 123.523c-.063.292-1.661 10.749-2.276 12.399-.945 2.524-1.668 4.348-1.668 4.348l-1.044-2.36a34.903 34.903 0 0 1-2.987-13.88l-.061-8.986 3.026-2.6c5.876.964 6.459 4.384 5.01 11.079zM228.957 114.954l-.007.042-1.565 9.22a34.886 34.886 0 0 1-4.472 12.1l-.127.212-1.668 2.789s-.458-1.641-1.092-3.97c-.468-1.72-1.562-10.496-1.837-11.737a24.69 24.69 0 0 1-.23-1.13c-1.16-6.592.105-9.328 5.948-10.117l5.05 2.59z"/><path fill="#2D353C" d="m270.503 112.444-3.026 2.6s-4.887 4.654-24.309 4.147c-11.44-.298-14.437-2.1-14.604-1.897-.006.005-.006.012-.006.012l-1.174-.275-5.585-1.306-1.142-.267s1.377-4.922 2.326-6.31c4.586-6.697 16.854-10.896 27.931-9.613.374.04.742.086 1.111.144 10.34 1.515 15.023 6.464 15.023 6.464l3.455 6.3z"/><path fill="#D29173" d="M251.303 148.619c-1.033-1.311-1.683-5.243-2.001-7.717a2.416 2.416 0 0 0-2.399-2.11 2.416 2.416 0 0 0-2.4 2.11c-.319 2.474-.969 6.406-2.001 7.717-1.549 1.964-1.549 3.66-.43 4.434 1.118.775 1.72-.376 2.494.484.691.768 1.721 1.033 2.366 1.033.699 0 1.616-.265 2.307-1.033.774-.86 1.376.29 2.495-.484 1.118-.774 1.118-2.47-.431-4.434z"/><path fill="#E6AE92" d="M251.029 140.356c-.289-.107.972-3.586 3.886-4.41 4.278-1.205 8.857 2.393 8.857 2.393s-7.512 3.96-12.743 2.017z"/><path fill="#2D353C" d="M251.03 140.356s2.432 1.377 5.68 1.233c5.045-.224 7.062-3.25 7.062-3.25s-5.193 3.138-12.742 2.017zM252.584 131.119c-.513.662-.634 1.288-.634 1.288 0-.315.042-.711.09-1.063a19.13 19.13 0 0 0-.351.09c-.238.85-.189 1.817-.189 1.817s0-.281-.169-1.182a1.967 1.967 0 0 1-.023-.525c-.34.105-.709 1.496-.709 1.496-.292 1.55.211 1.879.211 1.879 3.179-2.738 9.377-1.995 10.767-1.893 1.391.102 2.682-.656 2.682-.656-4.878-1.983-9.311-1.72-11.675-1.251z"/><path fill="#E6AE92" d="M241.768 140.356c.289-.107-.973-3.586-3.888-4.41-4.278-1.205-8.856 2.393-8.856 2.393s7.512 3.96 12.744 2.017z"/><path fill="#2D353C" d="M241.767 140.356s-2.433 1.377-5.681 1.233c-5.045-.224-7.063-3.25-7.063-3.25s5.195 3.138 12.744 2.017zM240.213 131.119c.512.662.633 1.288.633 1.288 0-.315-.042-.711-.09-1.063.125.03.243.06.351.09.238.85.189 1.817.189 1.817s0-.281.169-1.182c.036-.187.037-.361.024-.525.339.105.708 1.496.708 1.496.293 1.55-.211 1.879-.211 1.879-3.179-2.738-9.376-1.995-10.766-1.893-1.391.102-2.682-.656-2.682-.656 4.878-1.983 9.31-1.72 11.675-1.251zM328.404 249.909c7.77 2.41-16.889 29.049-33.777 22.969-16.889-6.08 14.186-29.05 33.777-22.97z"/><path fill="#E9B59A" d="M410.531 312.049c-.117.437-1.012 1.278-2.226 2.215-1.895 1.47-4.547 3.195-6.091 4.036-2.45 1.342-7.05 5.655-7.433 5.804 0 .117-8.402 3.003-12.503 3.323-3.344.255-14.365-.32-21.182-2.27-1.661-.467-3.14-.83-4.323-1.01-5.995-.906-33.896-3.163-38.454-10.394-3.078-4.856-14.025-27.177-16.826-38.976-1.704-7.2-3.355-14.281-4.494-19.18l-1.501-6.538 6.581-40.862c3.429 3.429 13.961 15.367 18.157 29.882 4.206 14.504 13.876 50.318 15.399 54.514 1.522 4.206 31 16.996 31 16.996s3.077-6.155 10.33-8.104c3.62-.97 8.316-5.42 10.446-7.072 2.13-1.661 3.866-1.331 4.122.278.042.255.042.52.01.798-.117 1.076-.778 2.269-1.661 3.46a22.039 22.039 0 0 1-1.204 1.524c-.095.117-.18.223-.276.33-1.055 1.215-2.151 2.353-2.929 3.28-2.077 2.514-2.46 4.93-2.46 4.93s4.132.735 6.858.309c1.055-.148 1.832.406 2.407 1.15.927 1.215 3.109 1.31 5.804.065 5.356-2.492 6.997-3.653 8.583-4.931 2.429-1.97 3.898-.49 3.323 1.449a4.033 4.033 0 0 1-.714 1.342c-.298.372-.799.873-1.416 1.426 1.587-.543 2.949 1.17 2.673 2.226z"/><path fill="#D29173" d="M308.753 286.118c-1.611-9.567-.159-19.934 6.448-27.423 2.615-2.965 5.716-4.98 9.086-6.26-1.556-5.584-2.98-10.663-4.052-14.356-4.196-14.515-14.728-26.452-18.157-29.881l-6.581 40.86 1.501 6.539c1.14 4.899 2.79 11.98 4.494 19.18 1.745 7.353 6.654 18.788 10.85 27.54-1.613-5.431-2.719-11.036-3.589-16.2zM406.536 310.57s.02-.011.031-.021c.469-.277.831-.49 1.033-.618l.03.022c.083-.05.16-.095.226-.128.617-.554 1.118-1.055 1.416-1.427.352-.447.586-.905.714-1.342-1.278.83-3.962 2.587-6.007 4.078-2.704 1.96-9.126 5.187-9.52 5.389a41.55 41.55 0 0 0 3.951-1.502c1.715-.766 5.997-3.183 8.126-4.451zM401.237 315.564c-2.238 1.335-6.351 4.346-6.691 4.505 2.225-.522 10.532-5.304 11.458-5.645.937-.34 1.523.255 1.523.255l.777-.414c1.214-.936.153-3.008-7.067 1.299z"/><path fill="#E9B59A" d="M398.742 310.037c-.373.373-.713.703-1.033 1-1.075 1.002-1.917 1.65-2.897 2.376-.489.352-.819.554-.819.554l-1.012-1.14-.235-.267-1.544-1.735-1.331-1.502c3.248-.862 3.717-2.534 3.812-2.662.842-1.268-2.299-3.301-3.578-3.94-.873-.437-1.533-1.033-1.682-1.747a.9.9 0 0 1-.022-.17 1.46 1.46 0 0 1 .108-.692c.074-.223.201-.436.392-.671.192-.234.533-.394.981-.49 2.151-.436 7.029 3.046 8.775 4.92.404.437.703.873.916 1.32.915 1.874.266 3.749-.831 4.846z"/><path fill="#D29173" d="M398.741 310.037c-.373.373-.713.703-1.033 1-1.555.789-3.386 1.396-4.728 1.79-1.033.298-1.768.469-1.895.49.106-.043.766-.32 1.661-.757 1.906-.936 4.888-2.566 5.836-4.131.819-1.364 1.256-2.162.99-3.238.915 1.874.266 3.749-.831 4.846zM391.542 295.489c-.117 1.075-.778 2.27-1.662 3.462a21.693 21.693 0 0 1-1.203 1.52c-.096.119-.181.225-.277.33-1.054 1.216-2.15 2.355-2.927 3.282-2.077 2.513-2.461 4.93-2.461 4.93s-.48-.16-1.236.01c-.724.15-3.067.832-3.354.917 1.597-.64 2.864-4.398 5.719-6.496 2.864-2.108 5.485-4.046 7.263-7.933l.138-.022zM372.78 313.533c5.682-2.081 7.589.33 10.692 2.06 3.103 1.729 5.284 1.846 5.284 1.846s-4.205-2.268-6.364-5.121c-2.16-2.851-9.612 1.215-9.612 1.215z"/><path fill="#E9B59A" d="M374.68 326.416c9.964 1.013 18.464.189 23.138-2.618 4.673-2.808 5.641-3.763 8.278-5.683 2.638-1.92 2.112-3.786 1.131-4.316-.946-.513-1.83.032-4.116 1.259-5.37 2.88-14.077 5.785-14.077 5.785l-14.354 5.573z"/><path fill="#667B9A" d="M328.403 249.91s-15.452-.446-26.017 9.03a27.139 27.139 0 0 0-6.411 8.532s-2.076-15.388-4.525-34.717c-.416-3.344-.853-6.805-1.289-10.32-2.96-23.864 5.484-25.557 5.484-25.557 14.515 5.069 19.243 21.958 26.006 37.496l6.752 15.537z"/><path fill="#667B9A" d="M302.387 258.94a27.124 27.124 0 0 0-6.411 8.532s-6.753-24.317-2.699-50.663c2.374 8.977 5.606 34.678 9.11 42.132z"/><path fill="#2D353C" d="M165.602 249.909c-7.769 2.41 16.89 29.049 33.778 22.969 16.889-6.08-14.187-29.05-33.778-22.97z"/><path fill="#E9B59A" d="M83.477 312.049c.117.437 1.012 1.278 2.226 2.215 1.896 1.47 4.546 3.195 6.09 4.036 2.45 1.342 7.051 5.655 7.434 5.804 0 .117 8.402 3.003 12.502 3.323 3.345.255 14.366-.32 21.181-2.27 1.661-.467 3.142-.83 4.323-1.01 5.996-.906 33.897-3.163 38.455-10.394 3.078-4.856 14.026-27.177 16.827-38.976 1.704-7.2 3.355-14.281 4.494-19.18.916-3.993 1.502-6.538 1.502-6.538l-6.582-40.862c-3.429 3.429-13.961 15.367-18.157 29.882-4.206 14.504-13.876 50.318-15.399 54.514-1.522 4.206-31 16.996-31 16.996s-3.078-6.155-10.331-8.104c-3.62-.97-8.315-5.42-10.445-7.072-2.13-1.661-3.867-1.331-4.122.278a2.833 2.833 0 0 0-.011.798c.117 1.076.777 2.269 1.661 3.46.362.512.778 1.024 1.205 1.524.095.117.18.223.276.33 1.055 1.215 2.151 2.353 2.929 3.28 2.076 2.514 2.459 4.93 2.459 4.93s-4.132.735-6.858.309c-1.055-.148-1.832.406-2.407 1.15-.926 1.215-3.11 1.31-5.804.065-5.357-2.492-6.995-3.653-8.582-4.931-2.429-1.97-3.898-.49-3.323 1.449.128.436.361.894.713 1.342.298.372.798.873 1.416 1.426-1.587-.543-2.949 1.17-2.672 2.226z"/><path fill="#D29173" d="M185.254 286.118c1.611-9.567.159-19.934-6.448-27.423-2.615-2.965-5.717-4.98-9.087-6.26 1.556-5.584 2.982-10.663 4.054-14.356 4.195-14.515 14.728-26.452 18.156-29.881l6.582 40.86s-.586 2.545-1.502 6.539a5049.941 5049.941 0 0 1-4.494 19.18c-1.745 7.353-6.653 18.788-10.849 27.54 1.612-5.431 2.719-11.036 3.588-16.2zM87.47 310.57s-.02-.011-.031-.021c-.468-.277-.832-.49-1.034-.618l-.03.022a3.025 3.025 0 0 0-.225-.128c-.617-.554-1.118-1.055-1.416-1.427a4.036 4.036 0 0 1-.715-1.342c1.279.83 3.962 2.587 6.007 4.078 2.705 1.96 9.127 5.187 9.521 5.389a41.66 41.66 0 0 1-3.951-1.502c-1.714-.766-5.996-3.183-8.126-4.451zM92.771 315.564c2.238 1.335 6.35 4.346 6.69 4.505-2.226-.522-10.532-5.304-11.459-5.645-.937-.34-1.522.255-1.522.255l-.777-.414c-1.214-.936-.152-3.008 7.068 1.299z"/><path fill="#E9B59A" d="M95.265 310.037c.373.373.714.703 1.033 1 1.076 1.002 1.917 1.65 2.897 2.376.489.352.82.554.82.554l1.011-1.14.235-.267 1.544-1.735 1.331-1.502c-3.248-.862-3.717-2.534-3.812-2.662-.842-1.268 2.3-3.301 3.578-3.94.873-.437 1.533-1.033 1.682-1.747a.9.9 0 0 0 .022-.17 1.47 1.47 0 0 0-.107-.692 2.118 2.118 0 0 0-.394-.671c-.192-.234-.532-.394-.98-.49-2.151-.436-7.028 3.046-8.775 4.92a5.337 5.337 0 0 0-.916 1.32c-.915 1.874-.266 3.749.831 4.846z"/><path fill="#D29173" d="M95.265 310.037c.373.373.714.703 1.033 1 1.555.789 3.386 1.396 4.728 1.79 1.033.298 1.769.469 1.897.49-.106-.043-.768-.32-1.662-.757-1.907-.936-4.888-2.566-5.836-4.131-.82-1.364-1.256-2.162-.99-3.238-.915 1.874-.267 3.749.83 4.846zM102.465 295.489c.117 1.075.777 2.27 1.661 3.462.362.51.777 1.02 1.204 1.52.095.119.18.225.277.33 1.054 1.216 2.15 2.355 2.928 3.282 2.076 2.513 2.46 4.93 2.46 4.93s.479-.16 1.235.01c.724.15 3.067.832 3.355.917-1.598-.64-2.865-4.398-5.719-6.496-2.864-2.108-5.484-4.046-7.263-7.933l-.138-.022zM121.227 313.533c-5.682-2.081-7.589.33-10.692 2.06-3.103 1.729-5.284 1.846-5.284 1.846s4.204-2.268 6.363-5.121c2.16-2.851 9.613 1.215 9.613 1.215z"/><path fill="#E9B59A" d="M119.327 326.416c-9.964 1.013-18.464.189-23.137-2.618-4.674-2.808-5.644-3.763-8.28-5.683-2.637-1.92-2.111-3.786-1.13-4.316.946-.513 1.83.032 4.116 1.259 5.37 2.88 14.076 5.785 14.076 5.785l14.355 5.573z"/><path fill="#667B9A" d="M165.604 249.91s15.452-.446 26.016 9.03a27.139 27.139 0 0 1 6.411 8.532s2.076-15.388 4.526-34.717c.415-3.344.852-6.805 1.288-10.32 2.961-23.864-5.484-25.557-5.484-25.557-14.515 5.069-19.243 21.958-26.006 37.496l-6.751 15.537z"/><path fill="#667B9A" d="M191.62 258.94a27.154 27.154 0 0 1 6.411 8.532s6.753-24.317 2.699-50.663c-2.374 8.977-5.607 34.678-9.11 42.132z"/><path fill="#4C6181" d="M186.54 322.869c-2.224 13.344 10.133 23.645 47.288 29.724 37.155 6.08 67.33-7.881 74.761-27.472l-51.456-57.984s-66.54 31.413-70.593 55.732z"/><path fill="#667B9A" d="M216.264 190.462s24.32 26.346 31.52 26.346c4.959 0 29.279-27.697 29.279-27.697l18.578 7.768s-2.608 45.489 2.778 64.882c5.388 19.393 10.17 63.36 10.17 63.36-6.531-4.954-14.415 34.066-81.516-4.278-28.373-16.213-40.533 2.026-40.533 2.026s2.164-13.866 7.431-34.453c7.431-29.048 4.391-91.538 4.391-91.538s7.559-3.553 17.902-6.416z"/><path fill="#35506B" d="M337.494 326.783c-17.161-4.477-47.007 9.7-56.707 9.7l-33.893 5.98-33.893-5.98c-9.7 0-39.546-14.177-56.708-9.7-17.161 4.477 11.193 44.77 47.008 57.454 17.87 6.329 69.315 6.329 87.186 0 35.815-12.684 64.169-52.977 47.007-57.454z"/><path fill="#5A7792" d="M337.494 326.783c-17.161-4.477-47.007 9.7-56.707 9.7C291.524 337.937 317 333.34 317 333.34s-6.756 1.689-13.173 9.796c-6.418 8.106-54.044 51.34-54.044 51.34s-26.009-23.643-32.765-32.763c-6.755-9.12-20.604-20.604-24.319-24.995-2.341-2.767 3.503-2.181 16.505-.693-12.184-2.382-37.594-13.238-52.911-9.242-17.161 4.477 11.193 44.77 47.008 57.454 17.87 6.329 30.166 9.87 38.003 11.832l-.063 2.345s1.753-.197 5.653-1.037c3.9.84 5.653 1.037 5.653 1.037l-.064-2.345c7.837-1.961 20.133-5.503 38.004-11.832 35.815-12.684 64.169-52.977 47.007-57.454z"/><path fill="#E9B59A" d="M364.59 346.183c-1.609 4.279-4.51 8.33-8.16 12.08-11.569 11.97-30.67 21.039-39.46 25.359-6.64 3.26-13.779 6.06-20.76 8.43-17.74 6.06-34.39 9.44-38.74 10.83-5.01 1.62-14.29 6.28-21.47 8.49-.93.29-1.82.53-2.66.73-.56.12-1.1.23-1.61.31-7.27 1.11-25.74-3.92-32.46-3.92-6.72 0-11.19 5.59-14.55 3.92-3.36-1.69-2.23-8.41 0-9.53 0 0-1.68-4.47 2.79-6.7 2.79-1.39 4.93-2.57 7.36-3.12 1.47-.35 3.06-.45 4.96-.24 4.85.53 22.15 3.15 25.92 2.34.15-.03.27-.06.38-.1 2.8-1.12 6.15-7.28 11.75-7.28 3.27 0 5.4-.38 9.75-3.06 3.08-1.89 7.26-4.93 13.76-9.81 1.551-1.16 3.27-2.57 5.12-4.14 13.37-11.39 34.101-32.12 56.57-42.42 6.1-2.79 12.33-4.82 18.571-5.68 6.46-.89 19.049 2.43 23.029 11.08 1.53 3.33 1.78 7.45-.09 12.43z"/><path fill="#D29173" d="M364.68 333.753c-2.22-1.3-4.939-2.3-8.25-2.7-11.859-1.44-18.22-5.62-33.35-2.7 6.1-2.79 12.33-4.82 18.571-5.68 6.46-.89 19.05 2.43 23.029 11.08zM296.21 392.057c-17.741 6.06-34.387 9.436-38.742 10.83-5.005 1.619-14.291 6.273-21.469 8.488-3.12-5.687-6.837-11.906-10.245-16.21.149-.03.267-.062.373-.105 2.801-1.118 6.156-7.274 11.757-7.274 3.269 0 5.399-.382 9.744-3.066 3.078-1.885 7.263-4.931 13.759-9.81 1.554-1.16 3.269-2.565 5.123-4.141-6.741 8.87-7.711 16.209 3.802 18.307 7.241 1.309 17.4 2.31 25.898 2.98z"/><path fill="#D29173" d="M356.432 358.265c-11.575 11.97-30.67 21.032-39.466 25.356-23.503 11.544-53.428 17.316-59.498 19.265-5.643 1.82-16.751 7.519-24.131 9.21-3.493-1.97-6.24-3.662-7.54-4.78-4.163-3.578-21.202-10.49-30.925-14.26 1.47-.34 3.056-.446 4.962-.233 5.037.553 23.503 3.354 26.293 2.236 2.801-1.118 6.156-7.273 11.757-7.273 3.27 0 3.163 5.32 7.508 2.637 7.497 2.067 19.081 2.736 33.777 1.352 15.335-1.44 54.044-14.863 77.263-33.51z"/><path stroke-miterlimit="10" stroke="#1C4368" stroke-width="1.065" d="m247.756 342.46.338 41.208" fill="none"/><path stroke-miterlimit="10" stroke="#1D4368" stroke-width="1.065" d="M254.85 340.77s2.026 7.432.676 11.147c-1.352 3.715-7.431 8.446-7.431 8.446" fill="none"/><path fill="#E9B59A" d="M152.141 322.672c-8.938-1.233-29.659 5.596-22.944 23.504 6.715 17.907 36.204 31.547 47.626 37.506 23.306 12.16 53.34 17.53 59.496 19.209 6.156 1.678 18.466 8.394 25.741 9.513 7.275 1.12 25.742-3.918 32.458-3.918 6.715 0 11.192 5.597 14.551 3.918 3.357-1.678 2.238-8.394 0-9.513 0 0 1.677-4.477-2.8-6.715-4.477-2.24-7.274-3.918-12.312-3.358-5.036.559-23.503 3.358-26.301 2.238-2.798-1.12-6.155-7.275-11.75-7.275-5.597 0-10.835-1.12-26.505-12.871-15.821-11.866-44.802-47.761-77.26-52.238z"/><path fill="#D29173" d="M129.327 333.753c2.22-1.3 4.94-2.3 8.25-2.7 11.86-1.44 18.22-5.62 33.35-2.7-6.1-2.79-12.33-4.82-18.57-5.68-6.46-.89-19.051 2.43-23.03 11.08z"/></g><g style="display:block"><path fill="#00ABAC" d="m62.387 390.939-.851 2.723-.92-.28.853-2.723.918.28zM85.984 398.606l-.585 1.871-6.74-1.74.78-2.493 6.545 2.362z"/><path fill="#414042" d="m91.82 401.247-.071.227-1.857-.315.214-.682 1.714.77z"/><path fill="#00ABAC" d="m43.643 385.742 2.622.425-.782 2.493-2.407-1.105.567-1.813z"/><path fill="#FFF" d="m79.438 396.244-.778 2.494-17.07-5.246.745-2.383 17.103 5.135z"/><path stroke-miterlimit="10" stroke="#9BDEDE" stroke-width=".2" d="m79.438 396.244-.778 2.494-17.07-5.246.745-2.383 17.103 5.135z" fill="none"/><path fill="#DBF3F3" d="m61.468 390.66-.851 2.723-15.133-4.723.78-2.494 15.204 4.495z"/><path fill="#CEEEEF" d="m90.142 400.363-.285.909-4.458-.795.584-1.872 4.159 1.758z"/><g><path fill="#00ABAC" d="m43.31 386.812-.233.744 2.407 1.105 15.133 4.722.919.278.053-.171.001.002 17.069 5.247 6.74 1.738 4.458.796.035-.114 1.857.315.05-.156-48.49-14.506z"/></g></g><g style="display:block"><path fill="#F6A500" d="M309.454 111.47c-3.59 0-7.079-.993-9.861-2.8l-8.118 2.02a.672.672 0 0 1-.751-.984l3.838-6.853a10.417 10.417 0 0 1-.814-4.03c0-3.408 1.655-6.602 4.658-8.994 2.958-2.356 6.881-3.654 11.048-3.654 4.168 0 8.092 1.298 11.05 3.654 3.003 2.392 4.657 5.586 4.657 8.993s-1.654 6.602-4.657 8.993c-2.958 2.356-6.882 3.654-11.05 3.654zm-9.736-4.2c.134 0 .266.04.378.116 2.601 1.764 5.926 2.735 9.358 2.735 7.918 0 14.36-5.069 14.36-11.299 0-6.23-6.442-11.3-14.36-11.3-7.917 0-14.358 5.07-14.358 11.3 0 1.301.279 2.576.83 3.79a.675.675 0 0 1-.025.608l-3.24 5.785 6.894-1.715a.693.693 0 0 1 .163-.02z"/><path fill="#F6A500" d="M316.351 101.968a2.84 2.84 0 0 1-2.836-2.835 2.84 2.84 0 0 1 2.836-2.835 2.838 2.838 0 0 1 2.834 2.835 2.838 2.838 0 0 1-2.834 2.835zm0-4.353a1.52 1.52 0 0 0-1.518 1.518 1.519 1.519 0 1 0 1.518-1.518zM309.463 101.968a2.838 2.838 0 0 1-2.834-2.835 2.838 2.838 0 0 1 2.834-2.835 2.838 2.838 0 0 1 2.834 2.835 2.838 2.838 0 0 1-2.834 2.835zm0-4.353a1.52 1.52 0 0 0-1.518 1.518 1.519 1.519 0 1 0 1.518-1.518zM302.576 101.968a2.84 2.84 0 0 1-2.835-2.835 2.84 2.84 0 0 1 2.835-2.835 2.838 2.838 0 0 1 2.835 2.835 2.838 2.838 0 0 1-2.835 2.835zm0-4.353c-.836 0-1.518.682-1.518 1.518a1.518 1.518 0 1 0 1.518-1.518z"/></g><g style="display:block"><path fill="#F0F1F1" d="m456.219 236.608-37.727-15.928s-15.673 13.743-19.975 19.333c-4.577 5.946-14.446 26.016-14.446 26.016l30.311 12.233 4.238 1.614 8.04-3.14s7.822-16.05 10.501-18.755c5.002-5.052 19.058-21.373 19.058-21.373z"/><path fill="#FFF" d="m456.219 236.607-37.727-15.927s-15.673 13.743-19.975 19.333c-.32.416-.668.902-1.034 1.445 11.331 4.543 33.857 14.649 38.503 17.23.128.072.269.124.419.166.267-.341.52-.635.756-.873 5.002-5.052 19.058-21.374 19.058-21.374z"/><path fill="#86ACAC" d="m445.774 238.793-26.421-11.154s-1.696 2.055-2.407 2.289c0 0 26.624 11.053 27.108 10.537l1.72-1.672zM440.579 244.24l-26.421-11.153-2.407 2.289 26.579 10.989 2.249-2.125zM435.016 250.063l-26.419-11.153-2.409 2.289 26.581 10.989 2.247-2.125zM429.174 257.093l-26.419-11.155-1.833 2.724 26.579 10.99 1.673-2.56zM425.279 263.729l-26.419-11.155-1.833 2.723 26.579 10.99 1.673-2.558z"/><path fill="#929497" d="m421.861 275.417-3.241 4.459 8.04-3.14-4.799-1.32z"/></g><g style="display:block"><path fill="#192E35" d="m119.043 210.44-3.462 16.162c-.416 1.944-2.357 3.06-4.335 2.494l-41.234-11.808c-1.98-.566-3.248-2.602-2.832-4.547l3.461-16.16c.418-1.944 2.36-3.06 4.337-2.494l41.233 11.807c1.98.566 3.248 2.602 2.832 4.547z"/><path fill="#FFF" d="m72.096 197.014-.67 3.133c-.09.42.2.865.646.992l.579.168c.447.128.736.57.646.991l-1.308 6.108c-.089.42-.525.658-.972.53l-.578-.166c-.447-.128-.883.108-.973.528l-.236 1.103-.588 2.742c-.291 1.362.596 2.788 1.982 3.186l40.249 11.523c1.385.397 2.745-.385 3.037-1.746l3.453-16.129c.292-1.362-.595-2.787-1.982-3.185l-40.248-11.524c-1.385-.396-2.745.385-3.037 1.746z"/><path fill="#192E35" d="M76.263 197.7c.01.002-.064.414-.167.918-.104.504-.197.91-.207.908-.011-.003.065-.415.168-.92.103-.503.195-.91.206-.907zM76.737 197.832c.011.003-.063.415-.167.918-.103.505-.196.91-.206.908-.011-.003.064-.415.168-.919.103-.504.195-.91.205-.907zM77.213 197.963c.01.003-.064.415-.167.918-.103.505-.197.911-.207.909-.011-.004.065-.415.168-.92.103-.503.195-.91.206-.907zM74.216 214.685c0-.001 0-.013.004-.038l.02-.107.074-.391.01.014-.29-.077c-.053-.015-.105-.025-.165-.047a.17.17 0 0 1-.094-.166c.012-.064.022-.12.04-.186a.142.142 0 0 1 .179-.084l.42.114-.022.014.098-.493.018.024-.624-.172c-.053-.014-.107-.028-.16-.044-.048-.013-.088.007-.132.036-.088.052-.176.102-.26.153l-.252.147-.123.072c-.041.024-.08.041-.097.078a.135.135 0 0 0-.003.12c.018.037.048.079.07.117l.145.229c.093.142.175.289.258.402.049.05.12.057.182.077l.175.05a141.743 141.743 0 0 0 .529.158s-.021-.003-.062-.013c-.047-.013-.107-.027-.179-.047-.082-.02-.178-.046-.286-.074l-.18-.049a2.557 2.557 0 0 0-.1-.025.248.248 0 0 1-.098-.058c-.093-.123-.171-.26-.268-.406a16.92 16.92 0 0 1-.143-.228c-.025-.04-.05-.074-.075-.121a.172.172 0 0 1 0-.15c.023-.05.075-.07.111-.093l.124-.073.25-.149.26-.154c.022-.011.043-.026.072-.036a.174.174 0 0 1 .09-.002l.16.045.623.173.017.005-.002.02-.101.49-.005.019-.018-.006a67.71 67.71 0 0 0-.419-.117c-.06-.02-.123.011-.142.064-.016.056-.027.122-.038.177a.137.137 0 0 0 .073.135c.05.02.11.032.16.047l.286.083.013.003-.003.01-.088.396c-.01.039-.017.072-.023.102-.007.022-.009.033-.01.032z"/><path fill="#F5F5F5" d="m83.138 201.168-3.109 14.559c-.155.728-.883 1.145-1.623.934l-.498-.142c-.742-.212-1.218-.975-1.062-1.703l3.11-14.558c.154-.729.881-1.146 1.623-.935l.5.144c.74.211 1.215.973 1.059 1.701z"/><path fill="#192E35" d="M83.138 201.168s.003-.035.013-.101c.009-.066.013-.167.004-.3a1.493 1.493 0 0 0-.555-1.014 1.424 1.424 0 0 0-.35-.21c-.13-.055-.275-.09-.425-.134-.15-.04-.306-.095-.471-.112a1.3 1.3 0 0 0-.503.036c-.332.09-.646.332-.8.693-.076.178-.102.385-.15.59l-.135.637-2.886 13.57c-.07.324-.01.68.163.977.17.297.449.533.763.65.156.056.325.096.487.145.163.051.32.087.483.086.322.004.63-.114.855-.32.114-.102.205-.227.27-.365.067-.137.099-.288.132-.443l.194-.91c.13-.6.255-1.19.378-1.764l1.31-6.097.888-4.11.245-1.115.065-.29.025-.099s-.005.035-.018.1l-.06.292-.23 1.12c-.207.973-.503 2.379-.869 4.115-.37 1.737-.809 3.806-1.296 6.102l-.375 1.763c-.065.301-.13.605-.194.912-.032.152-.066.312-.136.456a1.218 1.218 0 0 1-.283.383 1.31 1.31 0 0 1-.896.336 1.696 1.696 0 0 1-.502-.089c-.164-.05-.325-.087-.492-.146a1.567 1.567 0 0 1-.8-.683 1.451 1.451 0 0 1-.173-1.024 68427.817 68427.817 0 0 1 3.044-14.201c.048-.204.074-.412.155-.598.159-.371.484-.618.826-.708.171-.048.348-.057.517-.036.17.02.325.076.475.117.15.044.296.08.43.139.134.055.25.134.354.216a1.497 1.497 0 0 1 .553 1.033c.008.134 0 .235-.011.301-.012.067-.02.1-.02.1z"/><path fill="#192E35" d="M81.526 200.425c-.001.006-.052-.01-.144-.009a.528.528 0 0 0-.53.611c.027.21.199.432.44.5.24.07.48-.034.587-.206a.558.558 0 0 0 .037-.532.661.661 0 0 0-.259-.295c-.081-.048-.132-.063-.13-.07a.472.472 0 0 1 .144.047.662.662 0 0 1 .287.3c.08.16.098.394-.025.587a.583.583 0 0 1-.656.233.689.689 0 0 1-.485-.56.569.569 0 0 1 .213-.532.556.556 0 0 1 .486-.09c.024.008.036.015.035.016z"/><path fill="#192E35" d="M82.588 200.398c.01.017-.132.107-.316.204-.185.095-.343.16-.352.144-.01-.016.132-.108.317-.204.184-.096.342-.16.351-.144z"/><path fill="#E0E0E0" d="m78.333 214.177-.065.306-.082-.022.152-.707.08.023-.065.307.808.231-.021.092-.807-.23zM79.055 213.29l-.118.548c.142.03.257-.048.288-.19a.282.282 0 0 0-.045-.228l.07-.032c.058.078.077.18.054.283-.044.205-.215.305-.413.249-.198-.057-.31-.234-.27-.418.039-.184.206-.278.407-.221a.35.35 0 0 0 .027.009zm-.185.529.1-.464c-.133-.027-.245.041-.272.17-.028.126.044.245.172.294zM79.485 212.796l-.325.129.236.289-.022.1-.287-.357-.377.154.021-.1.304-.123-.22-.272.02-.096.272.34.399-.165-.02.101zM79.57 212.191a.227.227 0 0 1 .017.153c-.027.123-.11.171-.234.135l-.404-.115-.025.118-.077-.021.025-.118-.146-.042.019-.088.147.041.043-.2.075.022-.043.2.4.114c.077.023.13-.005.145-.08a.151.151 0 0 0-.013-.106l.072-.013z"/><path fill="#667B9A" d="m87.156 214.4-.804 3.764-3.83-1.095.804-3.764 3.83 1.095zM85.283 206.182c.018.005-.236 1.268-.567 2.82-.332 1.553-.615 2.807-.633 2.802-.018-.005.236-1.267.569-2.82.33-1.552.613-2.807.631-2.802z"/><path fill="#192E35" d="M87.415 202.035c.018.006-.45 2.272-1.046 5.062-.596 2.79-1.094 5.047-1.111 5.042-.019-.005.45-2.27 1.046-5.062.595-2.79 1.093-5.046 1.111-5.042zM88.228 202.394c.018.005-.446 2.246-1.034 5.002-.59 2.758-1.082 4.99-1.1 4.983-.017-.005.445-2.243 1.034-5.001.59-2.757 1.081-4.989 1.1-4.984zM88.154 206.713c.018.005-.25 1.33-.597 2.957-.348 1.628-.644 2.944-.663 2.939-.017-.006.25-1.33.598-2.958.348-1.628.643-2.943.662-2.938z"/><path fill="#667B9A" d="m93.536 216.227-.803 3.763-3.83-1.096.803-3.763 3.83 1.096zM91.665 208.007c.018.006-.236 1.268-.568 2.82-.331 1.553-.614 2.807-.632 2.802-.018-.005.236-1.267.568-2.82.332-1.552.614-2.807.632-2.802z"/><path fill="#192E35" d="M93.796 203.861c.018.005-.45 2.272-1.046 5.062-.597 2.79-1.094 5.047-1.11 5.042-.02-.005.448-2.27 1.045-5.062.596-2.789 1.093-5.047 1.111-5.042zM94.609 204.22c.017.005-.445 2.245-1.033 5.001-.59 2.758-1.082 4.99-1.1 4.984-.017-.005.445-2.244 1.034-5.002.59-2.757 1.08-4.988 1.099-4.983zM94.535 208.538c.017.006-.25 1.33-.597 2.957-.348 1.629-.644 2.944-.663 2.94-.018-.007.25-1.33.597-2.959.348-1.627.644-2.943.663-2.938z"/><path fill="#667B9A" d="m99.917 218.052-.803 3.763-3.83-1.095.803-3.763 3.83 1.095zM98.046 209.833c.018.005-.236 1.268-.568 2.82-.331 1.552-.614 2.807-.632 2.802-.018-.005.236-1.267.568-2.82.332-1.552.614-2.807.632-2.802z"/><path fill="#192E35" d="M100.177 205.688c.018.005-.45 2.272-1.046 5.06-.596 2.791-1.093 5.048-1.111 5.043-.018-.005.45-2.27 1.046-5.061.596-2.79 1.093-5.047 1.111-5.042zM100.99 206.046c.018.006-.445 2.245-1.033 5.002-.59 2.759-1.081 4.99-1.099 4.984-.018-.005.444-2.244 1.034-5.002.589-2.757 1.08-4.989 1.098-4.984zM100.917 210.364c.018.006-.25 1.33-.596 2.957-.349 1.629-.645 2.944-.663 2.94-.018-.006.25-1.33.597-2.958.348-1.628.644-2.943.662-2.939z"/><path fill="#667B9A" d="m106.3 219.878-.805 3.764-3.83-1.095.804-3.764 3.83 1.095z"/><path fill="#375964" d="M104.427 211.659c.018.005-.236 1.267-.568 2.82-.331 1.552-.614 2.807-.632 2.801-.019-.005.236-1.266.568-2.82.331-1.551.613-2.806.632-2.801z"/><path fill="#192E35" d="M106.558 207.513c.018.006-.45 2.272-1.046 5.062-.596 2.79-1.093 5.047-1.111 5.042-.019-.005.45-2.27 1.046-5.062.596-2.79 1.093-5.047 1.111-5.042zM107.371 207.872c.018.005-.445 2.245-1.033 5.001-.59 2.759-1.081 4.99-1.1 4.984-.017-.006.445-2.244 1.034-5.002.59-2.757 1.08-4.988 1.099-4.983zM107.297 212.19c.019.005-.249 1.33-.596 2.958-.348 1.628-.644 2.943-.662 2.938-.018-.005.249-1.329.596-2.957.348-1.628.645-2.944.662-2.938z"/><path fill="#E0E0E0" d="m112.68 221.704-.804 3.764-3.83-1.096.804-3.763 3.83 1.095zM110.808 213.484c.017.006-.237 1.268-.568 2.82-.331 1.553-.615 2.807-.632 2.802-.019-.005.236-1.267.568-2.82.331-1.552.613-2.807.632-2.802z"/><path fill="#EBEBEB" d="M112.94 209.338c.018.006-.45 2.272-1.046 5.062-.596 2.79-1.095 5.048-1.113 5.044-.018-.006.451-2.272 1.048-5.064.596-2.788 1.093-5.046 1.111-5.042zM113.752 209.698c.017.005-.445 2.245-1.033 5.001-.59 2.758-1.082 4.99-1.1 4.984-.017-.005.445-2.244 1.034-5.002.59-2.757 1.08-4.988 1.099-4.983zM113.679 214.016c.018.005-.25 1.329-.597 2.957s-.643 2.943-.662 2.938c-.018-.006.25-1.329.596-2.957.349-1.628.645-2.944.663-2.938z"/><path d="m106.299 219.879-.805 3.763-3.83-1.095.805-3.764 3.83 1.096zM93.536 216.227l-.803 3.763-3.83-1.096.803-3.763 3.83 1.096z"/></g><g style="display:block"><path fill="#929497" d="m349.08 401.656-.015-4.62 107.464 8.923-.251 4.705-107.197-9.008z"/><path fill="#A7A9AC" d="M422.355 394.972c-1.83-.817-4.61-1.336-6.208-1.157l-66.001 7.362c-1.6.179-1.412.985.418 1.802l32.418 14.467c1.829.817 4.61 1.334 6.208 1.156l66-7.363c1.6-.178 1.413-.985-.417-1.801l-32.418-14.466z"/><path fill="#D1D2D3" d="M422.355 390.299c-1.83-.816-4.61-1.334-6.21-1.155l-66 7.362c-1.598.179-1.411.985.419 1.8l32.418 14.469c1.829.816 4.61 1.334 6.208 1.155l66-7.362c1.6-.178 1.413-.986-.417-1.802l-32.418-14.467z"/><path fill="#B6C7E0" d="M380.766 403.02c-.595 5.508 2.6 9.608 7.136 9.16l63.13-6.237c4.538-.448 8.697-5.278 9.293-10.785l7.308-45.744c.596-5.508-2.601-9.608-7.137-9.16l-65.573 6.238c-4.535.448-8.694 5.276-9.291 10.784l-4.866 45.744z"/><path fill="#929497" d="M381.635 403.424c-.595 5.509 3.637 10.562 8.172 10.113l62.095-7.19c4.536-.448 8.696-5.277 9.29-10.783l6.646-45.07c.597-5.507-2.601-9.606-7.137-9.16l-64.91 6.239c-4.534.449-8.694 5.276-9.29 10.783l-4.866 45.068z"/><path fill="#D1D2D3" d="M384.522 404.457c-.595 5.508 2.602 9.608 7.139 9.16l63.13-6.237c4.537-.448 8.694-5.275 9.29-10.782l4.868-45.07c.594-5.508-2.601-9.607-7.138-9.16l-63.13 6.237c-4.536.449-8.696 5.277-9.291 10.784l-4.868 45.068z"/><path fill="#FFF" d="M421.479 379.026c-.413 3.826 1.808 6.675 4.96 6.363 3.15-.31 6.04-3.665 6.452-7.492.414-3.825-1.805-6.674-4.956-6.362-3.151.31-6.043 3.666-6.456 7.49z"/></g></g></svg>