<svg id="a1a71e79-f6f7-48c0-83e3-7fce818a789a" data-name="Ebene 1" xmlns="http://www.w3.org/2000/svg" xmlns:xlink="http://www.w3.org/1999/xlink" width="75mm" height="19.3mm" viewBox="0 0 212.6 54.7"><defs><style>.b1dfee22-8953-446d-9002-358aff7f1e69{fill:none;}.a7e4f4c7-cd9d-43e8-9411-ee675e6d5cd3{fill:#c1c0c0;}.e51ddeb7-d976-4696-b4df-80f2c2a8b93e{clip-path:url(#ba62d4bf-107b-432b-ad1f-231157e614b0);}.e0071d56-430f-4a7a-b405-a75b6f508649{fill:#667b9a;}</style><clipPath id="ba62d4bf-107b-432b-ad1f-231157e614b0" transform="translate(0 0)"><rect class="b1dfee22-8953-446d-9002-358aff7f1e69" width="32" height="20"/></clipPath></defs><path class="a7e4f4c7-cd9d-43e8-9411-ee675e6d5cd3" d="M72.8,54.3c0,.2,0,.3-.1.3H60.8c-.1,0-.1-.1-.1-.3s0-.3.1-.3a7.6,7.6,0,0,0,2.7-.4c.5-.3.7-.9.7-1.9v-.8l-1-18.4L53.6,54.2a.5.5,0,0,1-.8,0L40.9,32.6l-.4,16.2a6.13,6.13,0,0,0,1,3.8,3.61,3.61,0,0,0,3,1.4c.1,0,.1.1.1.3s0,.3-.1.3H35c-.1,0-.1-.1-.1-.3s0-.3.1-.3a3.61,3.61,0,0,0,3-1.4,6.85,6.85,0,0,0,1.2-3.8l.4-18.6h0a8.35,8.35,0,0,0-1.9-2.4,4.07,4.07,0,0,0-2.4-.8c-.1,0-.1-.1-.1-.3s0-.3.1-.3h7.5a1,1,0,0,1,.9.4c.2.3.6.9,1.2,1.9L55.1,47.1,64,27.6a3.49,3.49,0,0,1,.6-.9,1.08,1.08,0,0,1,.8-.2h6.9c.1,0,.1.1.1.3s0,.3-.1.3a4.71,4.71,0,0,0-3.2.9,3,3,0,0,0-.9,2.7l1.1,20.4a6.9,6.9,0,0,0,.4,2,2,2,0,0,0,.9.9,6.19,6.19,0,0,0,2.1.2c.1-.2.1-.1.1.1" transform="translate(0 0)"/><path class="a7e4f4c7-cd9d-43e8-9411-ee675e6d5cd3" d="M84.7,52.8a1.93,1.93,0,0,0,1.2.9,10.19,10.19,0,0,0,2.9.3c.1,0,.1.1.1.3s0,.3-.1.3h-13c-.1,0-.1-.1-.1-.3s0-.3.1-.3a11,11,0,0,0,2.2-.2,1.06,1.06,0,0,0,.9-.9,5.29,5.29,0,0,0,.2-2V30.1a8.75,8.75,0,0,0-.2-2,2,2,0,0,0-.9-.9,6.53,6.53,0,0,0-2.2-.2c-.1,0-.1-.1-.1-.3s0-.3.1-.3h2.5c1.4.1,2.6.1,3.4.1s1.6,0,2.7-.1c.4,0,.9-.1,1.5-.1h2.2c3.2,0,5.7.6,7.5,1.9a6.78,6.78,0,0,1,2.8,5.9,7.35,7.35,0,0,1-1.5,4.7A8.73,8.73,0,0,1,93,41.7a11.82,11.82,0,0,1-4.8,1,13.79,13.79,0,0,1-2.2-.2c-.1,0-.1-.1-.1-.2A.37.37,0,0,1,86,42h.1a7.77,7.77,0,0,0,1.6.2,4.38,4.38,0,0,0,3.6-1.9c1-1.3,1.4-3.1,1.4-5.5a8.2,8.2,0,0,0-1.6-5.5,5.49,5.49,0,0,0-4.6-1.9,2.16,2.16,0,0,0-1.8.6,4.11,4.11,0,0,0-.5,2.3V50.8a4.44,4.44,0,0,0,.5,2" transform="translate(0 0)"/><path class="a7e4f4c7-cd9d-43e8-9411-ee675e6d5cd3" d="M107.6,52.7a13.25,13.25,0,0,1-5.2-5.3,15.18,15.18,0,0,1-1.8-7.3,13,13,0,0,1,2.4-7.9,15.15,15.15,0,0,1,6.2-5,19.22,19.22,0,0,1,7.8-1.7,15.07,15.07,0,0,1,7.8,2,13.92,13.92,0,0,1,5.2,5.3,14.31,14.31,0,0,1,1.8,7,13.41,13.41,0,0,1-2.2,7.5,15.64,15.64,0,0,1-6,5.4,17.44,17.44,0,0,1-8.2,2,15.6,15.6,0,0,1-7.8-2m14-.6a9.74,9.74,0,0,0,3.3-4.3,17.06,17.06,0,0,0,1.2-6.7,19.15,19.15,0,0,0-1.3-7.4,11.1,11.1,0,0,0-3.8-5.1,9.74,9.74,0,0,0-5.8-1.8,7.8,7.8,0,0,0-6.6,3.1c-1.5,2.1-2.3,4.9-2.3,8.6a21.26,21.26,0,0,0,1.4,7.8,12.85,12.85,0,0,0,3.8,5.4,8.37,8.37,0,0,0,5.5,1.9,7.46,7.46,0,0,0,4.6-1.5" transform="translate(0 0)"/><path class="a7e4f4c7-cd9d-43e8-9411-ee675e6d5cd3" d="M139.3,33.5a11,11,0,0,0,2.1,2.2c.8.6,2,1.4,3.4,2.3,1.6,1,2.8,1.8,3.7,2.5a12,12,0,0,1,2.4,2.6,6.09,6.09,0,0,1,1,3.6,7,7,0,0,1-1.3,4.2,8.39,8.39,0,0,1-3.6,2.8,12.38,12.38,0,0,1-5.2,1,17.23,17.23,0,0,1-4.4-.6,9.83,9.83,0,0,1-3.1-1.2,1.38,1.38,0,0,1-.4-.3.75.75,0,0,1-.1-.5l-.1-7.1h0a.22.22,0,0,1,.2-.2c.2,0,.2,0,.3.2a49.14,49.14,0,0,0,2.5,4.4,12.67,12.67,0,0,0,2.7,3,5.58,5.58,0,0,0,3.7,1.3,4.62,4.62,0,0,0,3.1-1q1.2-.9,1.2-3.3a6.76,6.76,0,0,0-.9-3.5,10.67,10.67,0,0,0-2.2-2.5c-.9-.7-2.1-1.5-3.6-2.5a25.65,25.65,0,0,1-3.5-2.4,12.06,12.06,0,0,1-2.1-2.4,5.82,5.82,0,0,1-.9-3.3,6.09,6.09,0,0,1,1.4-4,8.5,8.5,0,0,1,3.7-2.4,15,15,0,0,1,4.7-.8,18.41,18.41,0,0,1,3.3.3,13.06,13.06,0,0,1,2.7.7.92.92,0,0,1,.6.4.75.75,0,0,1,.1.5v6.6a.22.22,0,0,1-.2.2c-.2,0-.3,0-.3-.1l-.4-.9a21.6,21.6,0,0,0-2.7-4.8,5.29,5.29,0,0,0-4.4-2,4.62,4.62,0,0,0-3.1,1,3.77,3.77,0,0,0-1.2,3,6.63,6.63,0,0,0,.9,3" transform="translate(0 0)"/><path class="a7e4f4c7-cd9d-43e8-9411-ee675e6d5cd3" d="M153.9,34.5c0,.1-.1.1-.3.1s-.2-.1-.2-.2c.1-1.2.3-2.7.4-4.6a38.15,38.15,0,0,0,.2-4.3c0-.2.1-.2.3-.2s.3.1.3.2c0,.7.9,1,2.7,1,2.7.1,5.8.1,9.4.1,1.8,0,3.8,0,5.9-.1h3.2a14.23,14.23,0,0,0,2.6-.2,1.44,1.44,0,0,0,1.1-.9c0-.1.1-.2.3-.2s.3.1.3.2c-.1.9-.2,2.3-.3,4.3s-.2,3.6-.2,4.8c0,.1-.1.1-.2.1s-.3,0-.3-.1a9.5,9.5,0,0,0-2.6-5.2,6.66,6.66,0,0,0-4.7-1.7,2.16,2.16,0,0,0-1.8.6,3.69,3.69,0,0,0-.4,2.1V51a4.92,4.92,0,0,0,.3,2,1.71,1.71,0,0,0,1.1.9,8.27,8.27,0,0,0,2.5.2c.1,0,.1.1.1.3s0,.3-.1.3H160.4c-.1,0-.1-.1-.1-.3s0-.3.1-.3a13.8,13.8,0,0,0,2.5-.2A1.67,1.67,0,0,0,164,53a4.92,4.92,0,0,0,.3-2V30.1a3.69,3.69,0,0,0-.4-2.1c-.3-.4-.9-.5-1.7-.5-4,0-6.6,2.3-8.3,7" transform="translate(0 0)"/><path class="a7e4f4c7-cd9d-43e8-9411-ee675e6d5cd3" d="M188.4,52.7a13.25,13.25,0,0,1-5.2-5.3,15.18,15.18,0,0,1-1.8-7.3,13,13,0,0,1,2.4-7.9,15.15,15.15,0,0,1,6.2-5,19.22,19.22,0,0,1,7.8-1.7,15.07,15.07,0,0,1,7.8,2,13.92,13.92,0,0,1,5.2,5.3,14.31,14.31,0,0,1,1.8,7,13.41,13.41,0,0,1-2.2,7.5,15.64,15.64,0,0,1-6,5.4,17.44,17.44,0,0,1-8.2,2,15.6,15.6,0,0,1-7.8-2m14-.6a9.74,9.74,0,0,0,3.3-4.3,17.06,17.06,0,0,0,1.2-6.7,19.15,19.15,0,0,0-1.3-7.4,11.1,11.1,0,0,0-3.8-5.1,9.74,9.74,0,0,0-5.8-1.8,7.8,7.8,0,0,0-6.6,3.1c-1.5,2.1-2.3,4.9-2.3,8.6a21.26,21.26,0,0,0,1.4,7.8,12.85,12.85,0,0,0,3.8,5.4,8.37,8.37,0,0,0,5.5,1.9,7.67,7.67,0,0,0,4.6-1.5" transform="translate(0 0)"/><g class="e51ddeb7-d976-4696-b4df-80f2c2a8b93e"><path class="e0071d56-430f-4a7a-b405-a75b6f508649" d="M.2,1.1A26.86,26.86,0,0,1,6,1.6,3.66,3.66,0,0,1,8.5,3.3a8.24,8.24,0,0,1,.7,3.9V20S23.3,3.6,23.5,3.4A5.41,5.41,0,0,1,26,1.6a20,20,0,0,1,5.6-.5A.46.46,0,0,0,32,.6q0-.6-.3-.6L25.4.1c-3.8.1-6.9.2-9.5.2C13.6.3,10.6.2,6.8.1L.2,0C.1,0,0,.2,0,.5s.1.6.2.6" transform="translate(0 0)"/></g><path class="a7e4f4c7-cd9d-43e8-9411-ee675e6d5cd3" d="M31.7,53.6a26.58,26.58,0,0,1-5.7-.4,3.45,3.45,0,0,1-2.4-1.7,9.84,9.84,0,0,1-.6-4v-37L9.2,26.5v21a7.73,7.73,0,0,1-.7,3.9A3.58,3.58,0,0,1,6,53.1a27.66,27.66,0,0,1-5.8.4c-.2,0-.2.2-.2.5s.1.5.2.5c2.8,0,5,0,6.6-.1l9.1-.1,9.3.1c1.6.1,3.7.1,6.4.1A.46.46,0,0,0,32,54c0-.2-.1-.4-.3-.4" transform="translate(0 0)"/></svg>