<svg xmlns="http://www.w3.org/2000/svg" width="1000" height="1000" style="width:100%;height:100%;transform:translate3d(0,0,0)"><defs><clipPath id="b"><path d="M0 0h1000v1000H0z"/></clipPath><filter id="a" filterUnits="objectBoundingBox" x="0%" y="0%" width="100%" height="100%"><feComponentTransfer in="SourceGraphic"><feFuncA type="table" tableValues="1.0 0.0"/></feComponentTransfer></filter><mask id="c" mask-type="alpha"><g filter="url(#a)"><g opacity=".99"><path fill="#202E53" d="m78.735-34.708 1.943 5.99L-58.964 72.319l-9.952-32.165S36.053-53.59 58.006-46.114c9.299 3.167 15.802 5.448 16.429 5.841a10.142 10.142 0 0 1 4.3 5.565z" transform="rotate(17.3 -1172.539 1811.82) scale(3.3264)" opacity="1" style="display:block"/></g></g></mask></defs><g clip-path="url(#b)"><g style="display:block"><path fill="#1E51AD" fill-opacity=".15" d="M492.111 873.782C230.254 884.536 40.794 701.822 100.01 387.23 153.39 94.28 371.076 64.944 568.912 103.06 769.46 141.812 823.983 245.4 868.484 500.554c46.434 268.529-127.394 364.71-376.373 373.228z"/><path fill="#1E51AD" fill-opacity=".2" d="M435.469 165.91c231.527-34.232 416.644 110.153 393.133 395.082-20.33 265.162-210.917 311.73-390.11 296.532C256.83 842.02 198.843 755.174 135.75 532.801c-66.045-234.067 79.42-335.857 299.718-366.89z"/></g><g style="display:block" opacity=".99"><path fill="#1E51AD" fill-opacity=".2" d="m761.174 405.583-.064 273.587a33.943 33.943 0 0 1-2.011 11.49c-4.689 13.04-17.206 22.357-31.839 22.356l-475.153-.1c-14.703.001-27.232-9.44-31.856-22.559-1.266-3.54-1.93-7.336-1.95-11.3l.063-273.472c.003-7.918 2.716-12.693 7.255-18.453 5.376-6.823 193.05-2.27 244.208-4.439 7.757-.33 16.689-.335 24.479-.01 51.312 2.137 253.325-5.31 258.716.972a33.735 33.735 0 0 1 8.152 21.928zm0 0-.064 273.587a33.943 33.943 0 0 1-2.011 11.49c-4.689 13.04-17.206 22.357-31.839 22.356l-475.153-.1c-14.703.001-27.232-9.44-31.856-22.559-1.266-3.54-1.93-7.336-1.95-11.3l.063-273.472c.003-7.918 2.716-12.693 7.255-18.453 5.376-6.823 193.05-2.27 244.208-4.439 7.757-.33 16.689-.335 24.479-.01 51.312 2.137 253.325-5.31 258.716.972a33.735 33.735 0 0 1 8.152 21.928z" opacity="1"/><path fill="#202E53" d="m770.134 398.303-.064 273.587a33.943 33.943 0 0 1-2.011 11.49c-4.689 13.04-17.206 22.357-31.839 22.356l-475.153-.1c-14.703.001-27.232-9.44-31.856-22.559-1.266-3.54-1.93-7.336-1.95-11.3l.063-273.472c.003-7.918 2.716-12.693 7.255-18.453 5.376-6.823 200.045-148.716 251.206-185.957 7.755-5.647 16.69-5.686 24.48-.117 51.311 36.694 246.326 176.316 251.717 182.597a33.735 33.735 0 0 1 8.152 21.928zm0 0-.064 273.587a33.943 33.943 0 0 1-2.011 11.49c-4.689 13.04-17.206 22.357-31.839 22.356l-475.153-.1c-14.703.001-27.232-9.44-31.856-22.559-1.266-3.54-1.93-7.336-1.95-11.3l.063-273.472c.003-7.918 2.716-12.693 7.255-18.453 5.376-6.823 200.045-148.716 251.206-185.957 7.755-5.647 16.69-5.686 24.48-.117 51.311 36.694 246.326 176.316 251.717 182.597a33.735 33.735 0 0 1 8.152 21.928z" opacity="1"/><g opacity="1"><path fill="#ECF2FB" d="m746.349 272.899.175 278.11c.009 12.859-10.413 23.287-23.271 23.296l-446.416.61c-12.859.009-23.292-10.41-23.3-23.27l-.177-278.107c-.008-12.858 10.414-23.29 23.273-23.298l446.42-.61c12.858-.009 23.288 10.41 23.296 23.269zm0 0 .175 278.11c.009 12.859-10.413 23.287-23.271 23.296l-446.416.61c-12.859.009-23.292-10.41-23.3-23.27l-.177-278.107c-.008-12.858 10.414-23.29 23.273-23.298l446.42-.61c12.858-.009 23.288 10.41 23.296 23.269z" opacity="1"/><g opacity="1"><path stroke-linecap="round" stroke-linejoin="round" stroke="#BFCEE2" stroke-width="16.632" d="m323.636 346.238 340.36-.036m-340.36.036 340.36-.036m-340.363-52.34 159.364.24m-159.364-.24 159.364.24M326.776 504l340.334-.051m-340.362-52.323 159.389.241m-160.403-.452 340.334-.05m-340.361-52.323 159.388.24m-160.403-.452 340.335-.05m-340.362-52.323 159.388.24m-160.417-.46 340.36-.035m-340.363-52.34 159.364.24" fill="none"/></g></g><g opacity="1"><path fill="#202E53" d="m770.132 400.804-.062 271.086a33.943 33.943 0 0 1-2.011 11.49c-4.689 13.04-17.206 22.357-31.839 22.356l-475.153-.1c-14.703.001-27.232-9.44-31.856-22.559-1.266-3.54-1.93-7.336-1.95-11.3l.064-270.97c.01-18.713 15.174-24.804 33.813-13.348l234.86 148.05 240.293-147.95c17.708-10.555 33.77-5.431 33.84 13.245zm0 0-.062 271.086a33.943 33.943 0 0 1-2.011 11.49c-4.689 13.04-17.206 22.357-31.839 22.356l-475.153-.1c-14.703.001-27.232-9.44-31.856-22.559-1.266-3.54-1.93-7.336-1.95-11.3l.064-270.97c.01-18.713 15.174-24.804 33.813-13.348l234.86 148.05 240.293-147.95c17.708-10.555 33.77-5.431 33.84 13.245zm-2.072 281.992c-4.687 13.382-17.207 22.94-31.84 22.94l-475.152-.104c-14.703.002-27.235-9.688-31.857-23.147L478.374 515.49s11.51-7.49 20.942-7.381c9.432.108 19.456 7.871 19.456 7.871L768.06 682.796zm0 0c-4.687 13.382-17.207 22.94-31.84 22.94l-475.152-.104c-14.703.002-27.235-9.688-31.857-23.147L478.374 515.49s11.51-7.49 20.942-7.381c9.432.108 19.456 7.871 19.456 7.871L768.06 682.796zm-.001.585c-4.689 13.04-17.206 22.356-31.839 22.355l-475.153-.1c-14.703.001-27.232-9.44-31.856-22.559l249.162-162.74s11.51-7.299 20.943-7.193c9.433.105 19.459 7.67 19.459 7.67l249.284 162.567zm0 0c-4.689 13.04-17.206 22.356-31.839 22.355l-475.153-.1c-14.703.001-27.232-9.44-31.856-22.559l249.162-162.74s11.51-7.299 20.943-7.193c9.433.105 19.459 7.67 19.459 7.67l249.284 162.567zM245.266 375.812a.885.885 0 0 1-.04.04s-.004.01-.001.014v.01l.084-.002s.003.001.003-.01v-.01a.258.258 0 0 0-.043-.04l-.003-.002zm0 0a.885.885 0 0 1-.04.04s-.004.01-.001.014v.01l.084-.002s.003.001.003-.01v-.01a.258.258 0 0 0-.043-.04l-.003-.002z"/><path fill="#202020" fill-opacity=".3" d="M768.06 682.796c-4.687 13.382-17.207 22.94-31.84 22.94l-475.152-.104c-14.703.002-27.235-9.688-31.857-23.147L478.374 515.49s11.51-7.49 20.942-7.381c9.432.108 19.456 7.871 19.456 7.871L768.06 682.796zm0 0c-4.687 13.382-17.207 22.94-31.84 22.94l-475.152-.104c-14.703.002-27.235-9.688-31.857-23.147L478.374 515.49s11.51-7.49 20.942-7.381c9.432.108 19.456 7.871 19.456 7.871L768.06 682.796zm-.001.585c-4.689 13.04-17.206 22.356-31.839 22.355l-475.153-.1c-14.703.001-27.232-9.44-31.856-22.559l249.162-162.74s11.51-7.299 20.943-7.193c9.433.105 19.459 7.67 19.459 7.67l249.284 162.567zm0 0c-4.689 13.04-17.206 22.356-31.839 22.355l-475.153-.1c-14.703.001-27.232-9.44-31.856-22.559l249.162-162.74s11.51-7.299 20.943-7.193c9.433.105 19.459 7.67 19.459 7.67l249.284 162.567zM245.266 375.812a.885.885 0 0 1-.04.04s-.004.01-.001.014v.01l.084-.002s.003.001.003-.01v-.01a.258.258 0 0 0-.043-.04l-.003-.002zm0 0a.885.885 0 0 1-.04.04s-.004.01-.001.014v.01l.084-.002s.003.001.003-.01v-.01a.258.258 0 0 0-.043-.04l-.003-.002z"/><path fill="#202E53" d="M768.059 683.38c-4.689 13.04-17.206 22.357-31.839 22.356l-475.153-.1c-14.703.001-27.232-9.44-31.856-22.559l249.162-162.74s11.51-7.299 20.943-7.193c9.433.105 19.459 7.67 19.459 7.67l249.284 162.567zm0 0c-4.689 13.04-17.206 22.357-31.839 22.356l-475.153-.1c-14.703.001-27.232-9.44-31.856-22.559l249.162-162.74s11.51-7.299 20.943-7.193c9.433.105 19.459 7.67 19.459 7.67l249.284 162.567zM245.266 375.813a.885.885 0 0 1-.04.04s-.004.01-.001.014v.01l.084-.002s.003.001.003-.01v-.01a.258.258 0 0 0-.043-.04l-.003-.002zm0 0a.885.885 0 0 1-.04.04s-.004.01-.001.014v.01l.084-.002s.003.001.003-.01v-.01a.258.258 0 0 0-.043-.04l-.003-.002z"/><path fill="none" d="M245.266 375.812a.885.885 0 0 1-.04.04s-.004.01-.001.014v.01l.084-.002s.003.001.003-.01v-.01a.258.258 0 0 0-.043-.04l-.003-.002zm0 0a.885.885 0 0 1-.04.04s-.004.01-.001.014v.01l.084-.002s.003.001.003-.01v-.01a.258.258 0 0 0-.043-.04l-.003-.002z"/></g></g><g style="display:block"><path fill="#1E51AD" fill-opacity=".18" d="M335.574 426.34c21.465 9.476 31.198 34.597 21.723 56.062-9.476 21.464-34.597 31.198-56.062 21.722-21.464-9.476-31.198-34.597-21.722-56.061 9.476-21.465 34.597-31.199 56.061-21.723z"/><path fill="#E1EAF5" d="M341.002 420.68c21.465 9.476 31.199 34.597 21.723 56.062-9.476 21.464-34.597 31.198-56.062 21.722-21.464-9.476-31.198-34.597-21.722-56.061 9.476-21.465 34.597-31.198 56.061-21.723zm-15.465 64.787c-4.026.273-8.835-.776-13.002-2.615-12.174-5.374-17.49-16.996-11.466-30.641 6.89-15.606 22.167-20.577 34.668-15.058 12.664 5.59 15.884 16.872 11.194 27.494-4.148 9.396-10.564 11.986-14.02 10.31-2.252-1.092-1.85-3.55 1.095-8.01l9.124-14.034c-1.538-2.045-5.226-4.748-8.82-6.335-11.767-5.194-23.124.63-27.525 10.597-2.958 6.7-.848 12.317 4.463 14.662 4.33 1.911 8.944 1.41 13.317-1.638l.163.072c-1.503 4.51.41 7.698 4.25 9.393 8.824 3.895 18.842-.664 24.108-12.593 6.06-13.726.13-28.158-14.25-34.506-18.466-8.152-36.943.972-44.301 17.64-7.07 16.015.567 31.004 14.13 36.991 5.8 2.561 10.374 3.701 16.25 3.66l.622-5.389zm2.433-24.31c-2.828 4.415-7.71 6.849-10.732 5.514-2.696-1.19-3.22-3.764-1.849-6.87 2.777-6.29 9.37-9.726 14.763-7.345 1.062.468 1.807.992 2.388 1.444l-4.57 7.258z"/><path fill="#202E53" d="M325.537 485.467c-4.026.273-8.835-.776-13.002-2.615-12.174-5.374-17.49-16.996-11.466-30.641 6.89-15.606 22.167-20.577 34.668-15.058 12.664 5.59 15.884 16.872 11.194 27.494-4.148 9.396-10.564 11.986-14.02 10.31-2.252-1.092-1.85-3.55 1.095-8.01l9.124-14.034c-1.538-2.045-5.226-4.748-8.82-6.335-11.767-5.194-23.124.63-27.525 10.597-2.958 6.7-.848 12.317 4.463 14.662 4.33 1.911 8.944 1.41 13.317-1.638l.163.072c-1.503 4.51.41 7.698 4.25 9.393 8.824 3.895 18.842-.664 24.108-12.593 6.06-13.726.13-28.158-14.25-34.506-18.466-8.152-36.943.972-44.301 17.64-7.07 16.015.567 31.004 14.13 36.991 5.8 2.561 10.374 3.701 16.25 3.66l.622-5.389zm2.433-24.31c-2.828 4.415-7.71 6.849-10.732 5.514-2.696-1.19-3.22-3.764-1.849-6.87 2.777-6.29 9.37-9.726 14.763-7.345 1.062.468 1.807.992 2.388 1.444l-4.57 7.258z"/></g><g style="display:block"><path fill="#1E51AD" fill-opacity=".17" d="M749.002 576.091v74.62c0 4.526-3.674 8.2-8.2 8.2h-202.95a8.204 8.204 0 0 1-8.2-8.2v-74.62c0-4.525 3.675-8.2 8.2-8.2h202.95c4.526 0 8.2 3.675 8.2 8.2zm0 0v74.62c0 4.526-3.674 8.2-8.2 8.2h-202.95a8.204 8.204 0 0 1-8.2-8.2v-74.62c0-4.525 3.675-8.2 8.2-8.2h202.95c4.526 0 8.2 3.675 8.2 8.2zm4.92-4.92v74.62c0 4.526-3.674 8.2-8.2 8.2h-202.95a8.204 8.204 0 0 1-8.2-8.2v-74.62c0-4.525 3.675-8.2 8.2-8.2h202.95c4.526 0 8.2 3.675 8.2 8.2zm0 0v74.62c0 4.526-3.674 8.2-8.2 8.2h-202.95a8.204 8.204 0 0 1-8.2-8.2v-74.62c0-4.525 3.675-8.2 8.2-8.2h202.95c4.526 0 8.2 3.675 8.2 8.2zm-170.355-1.025c21.157 0 38.335 17.178 38.335 38.335s-17.178 38.335-38.335 38.335-38.335-17.178-38.335-38.335 17.178-38.335 38.335-38.335zm0 0c21.157 0 38.335 17.178 38.335 38.335s-17.178 38.335-38.335 38.335-38.335-17.178-38.335-38.335 17.178-38.335 38.335-38.335zm0 12.095c8.718 0 15.785 7.068 15.785 15.785 0 7.188-4.804 16.46-11.377 19.493-.682.314 19.372 2.135 20.246 13.315-3.949 5.425-13.686 10.652-24.654 10.652-11.788 0-21.627-6.662-25.421-10.907.514-11.233 21.143-12.96 20.282-13.428-6.195-3.358-10.646-12.206-10.646-19.125 0-8.717 7.068-15.785 15.785-15.785zm0 0c8.718 0 15.785 7.068 15.785 15.785 0 7.188-4.804 16.46-11.377 19.493-.682.314 19.372 2.135 20.246 13.315-3.949 5.425-13.686 10.652-24.654 10.652-11.788 0-21.627-6.662-25.421-10.907.514-11.233 21.143-12.96 20.282-13.428-6.195-3.358-10.646-12.206-10.646-19.125 0-8.717 7.068-15.785 15.785-15.785z"/><path fill="#FFF" d="M753.922 571.171v74.62c0 4.526-3.674 8.2-8.2 8.2h-202.95a8.204 8.204 0 0 1-8.2-8.2v-74.62c0-4.525 3.675-8.2 8.2-8.2h202.95c4.526 0 8.2 3.675 8.2 8.2zm0 0v74.62c0 4.526-3.674 8.2-8.2 8.2h-202.95a8.204 8.204 0 0 1-8.2-8.2v-74.62c0-4.525 3.675-8.2 8.2-8.2h202.95c4.526 0 8.2 3.675 8.2 8.2zm-170.355-1.025c21.157 0 38.335 17.178 38.335 38.335s-17.178 38.335-38.335 38.335-38.335-17.178-38.335-38.335 17.178-38.335 38.335-38.335zm0 0c21.157 0 38.335 17.178 38.335 38.335s-17.178 38.335-38.335 38.335-38.335-17.178-38.335-38.335 17.178-38.335 38.335-38.335zm0 12.095c8.718 0 15.785 7.068 15.785 15.785 0 7.188-4.804 16.46-11.377 19.493-.682.314 19.372 2.135 20.246 13.315-3.949 5.425-13.686 10.652-24.654 10.652-11.788 0-21.627-6.662-25.421-10.907.514-11.233 21.143-12.96 20.282-13.428-6.195-3.358-10.646-12.206-10.646-19.125 0-8.717 7.068-15.785 15.785-15.785zm0 0c8.718 0 15.785 7.068 15.785 15.785 0 7.188-4.804 16.46-11.377 19.493-.682.314 19.372 2.135 20.246 13.315-3.949 5.425-13.686 10.652-24.654 10.652-11.788 0-21.627-6.662-25.421-10.907.514-11.233 21.143-12.96 20.282-13.428-6.195-3.358-10.646-12.206-10.646-19.125 0-8.717 7.068-15.785 15.785-15.785z"/><path fill="#DFE5F3" d="M583.567 570.146c21.157 0 38.335 17.178 38.335 38.335s-17.178 38.335-38.335 38.335-38.335-17.178-38.335-38.335 17.178-38.335 38.335-38.335zm0 0c21.157 0 38.335 17.178 38.335 38.335s-17.178 38.335-38.335 38.335-38.335-17.178-38.335-38.335 17.178-38.335 38.335-38.335zm0 12.095c8.718 0 15.785 7.068 15.785 15.785 0 7.188-4.804 16.46-11.377 19.493-.682.314 19.372 2.135 20.246 13.315-3.949 5.425-13.686 10.652-24.654 10.652-11.788 0-21.627-6.662-25.421-10.907.514-11.233 21.143-12.96 20.282-13.428-6.195-3.358-10.646-12.206-10.646-19.125 0-8.717 7.068-15.785 15.785-15.785zm0 0c8.718 0 15.785 7.068 15.785 15.785 0 7.188-4.804 16.46-11.377 19.493-.682.314 19.372 2.135 20.246 13.315-3.949 5.425-13.686 10.652-24.654 10.652-11.788 0-21.627-6.662-25.421-10.907.514-11.233 21.143-12.96 20.282-13.428-6.195-3.358-10.646-12.206-10.646-19.125 0-8.717 7.068-15.785 15.785-15.785z"/><path fill="#FFF" d="M583.567 582.241c8.718 0 15.785 7.068 15.785 15.785 0 7.188-4.804 16.46-11.377 19.493-.682.314 19.372 2.135 20.246 13.315-3.949 5.425-13.686 10.652-24.654 10.652-11.788 0-21.627-6.662-25.421-10.907.514-11.233 21.143-12.96 20.282-13.428-6.195-3.358-10.646-12.206-10.646-19.125 0-8.717 7.068-15.785 15.785-15.785zm0 0c8.718 0 15.785 7.068 15.785 15.785 0 7.188-4.804 16.46-11.377 19.493-.682.314 19.372 2.135 20.246 13.315-3.949 5.425-13.686 10.652-24.654 10.652-11.788 0-21.627-6.662-25.421-10.907.514-11.233 21.143-12.96 20.282-13.428-6.195-3.358-10.646-12.206-10.646-19.125 0-8.717 7.068-15.785 15.785-15.785z"/><g><path stroke-linecap="round" stroke-linejoin="round" stroke="#DEE4F3" stroke-width="8.2" d="M637.892 599.461h98.81m-98.81 0h98.81m-98.81 34.44h98.81m-98.81-17.22h98.81m-98.81-17.22h98.81" fill="none"/></g><g><path stroke-linecap="round" stroke-linejoin="round" stroke="#202E53" stroke-width="8.2" d="M637.892 581.831h47.56m-47.56 0h47.56" fill="none"/></g></g><g style="display:block" mask="url(#c)"><path fill="#1E51AD" fill-opacity=".2" d="m731.576 381.166-72.203 32.672 58.115-15.573 27.115-2.155-10.04-12.034-2.987-2.91zm-72.203 32.672 74.512-29.91 15.814-24.4-90.326 54.31zm70.463-23.512-70.463 23.512 82.218 3.27-11.755-26.782z"/><path fill="#A6BDDB" d="m732.745 376.72-72.203 32.673 58.115-15.573 27.114-2.156-10.04-12.033-2.986-2.91zm-72.203 32.673 74.512-29.91 15.814-24.4-90.326 54.31zm70.462-23.512-70.462 23.512 82.217 3.269-11.755-26.78z"/><path fill="#D3DFED" d="m660.542 409.393 74.512-29.91 15.814-24.4-90.326 54.31zm70.462-23.512-70.462 23.512 82.217 3.269-11.755-26.78z"/></g></g></svg>