<?xml version="1.0" encoding="utf-8"?>
<!-- Generator: Adobe Illustrator 25.0.1, SVG Export Plug-In . SVG Version: 6.00 Build 0)  -->
<svg version="1.1" id="Ebene_1" xmlns="http://www.w3.org/2000/svg" xmlns:xlink="http://www.w3.org/1999/xlink" x="0px" y="0px"
	 viewBox="0 0 212.6 54.7" style="enable-background:new 0 0 212.6 54.7;" xml:space="preserve">
<style type="text/css">
	.st0{fill:#C1C0C0;}
	.st1{clip-path:url(#SVGID_2_);fill:#667B9A;}
</style>
<g>
	<g>
		<path class="st0" d="M72.8,54.3c0,0.2,0,0.3-0.1,0.3c-1.1,0-1.9,0-2.5,0l-3.5,0l-3.5,0c-0.6,0-1.4,0-2.4,0c-0.1,0-0.1-0.1-0.1-0.3
			c0-0.2,0-0.3,0.1-0.3c1.3,0,2.2-0.2,2.7-0.4c0.5-0.3,0.7-0.9,0.7-1.9l0-0.8l-1-18.4l-9.6,21.7c-0.1,0.1-0.2,0.2-0.4,0.2
			c-0.2,0-0.3-0.1-0.4-0.2L40.9,32.6l-0.4,16.2c0,1.6,0.3,2.9,1,3.8c0.7,0.9,1.7,1.4,3,1.4c0.1,0,0.1,0.1,0.1,0.3
			c0,0.2,0,0.3-0.1,0.3c-0.8,0-1.5,0-2,0l-2.6,0l-2.9,0c-0.5,0-1.2,0-2,0c-0.1,0-0.1-0.1-0.1-0.3c0-0.2,0-0.3,0.1-0.3
			c1.3,0,2.3-0.5,3-1.4c0.7-0.9,1.1-2.2,1.2-3.8l0.4-18.6l0,0c-0.6-1.1-1.3-1.9-1.9-2.4C37,27.3,36.2,27,35.3,27
			c-0.1,0-0.1-0.1-0.1-0.3c0-0.2,0-0.3,0.1-0.3l2.2,0c0.4,0,1,0,1.7,0l2.5,0c0.3,0,0.6,0,1.1,0c0.4,0,0.7,0.1,0.9,0.4
			s0.6,0.9,1.2,1.9l10.2,18.4L64,27.6c0.2-0.4,0.4-0.7,0.6-0.9c0.2-0.2,0.5-0.2,0.8-0.2c0.3,0,0.6,0,1,0c0.4,0,0.8,0,1.2,0l2.8,0
			c0.4,0,1.1,0,1.9,0c0.1,0,0.1,0.1,0.1,0.3c0,0.2,0,0.3-0.1,0.3c-1.5,0-2.5,0.3-3.2,0.9c-0.7,0.6-1,1.5-0.9,2.7l1.1,20.4
			c0.1,0.9,0.2,1.6,0.4,2c0.2,0.4,0.5,0.7,0.9,0.9c0.5,0.2,1.2,0.2,2.1,0.2C72.8,54,72.8,54.1,72.8,54.3"/>
		<path class="st0" d="M84.7,52.8c0.2,0.4,0.6,0.7,1.2,0.9c0.6,0.2,1.6,0.3,2.9,0.3c0.1,0,0.1,0.1,0.1,0.3c0,0.2,0,0.3-0.1,0.3
			c-1.3,0-2.3,0-3,0l-4.1,0l-3.4,0c-0.6,0-1.5,0-2.5,0c-0.1,0-0.1-0.1-0.1-0.3c0-0.2,0-0.3,0.1-0.3c1,0,1.7-0.1,2.2-0.2
			c0.5-0.1,0.8-0.4,0.9-0.9c0.2-0.4,0.2-1.1,0.2-2V30.1c0-0.9-0.1-1.6-0.2-2c-0.2-0.4-0.5-0.7-0.9-0.9c-0.5-0.2-1.2-0.2-2.2-0.2
			c-0.1,0-0.1-0.1-0.1-0.3c0-0.2,0-0.3,0.1-0.3l2.5,0c1.4,0.1,2.6,0.1,3.4,0.1c0.7,0,1.6,0,2.7-0.1c0.4,0,0.9-0.1,1.5-0.1
			c0.6,0,1.3,0,2.2,0c3.2,0,5.7,0.6,7.5,1.9c1.8,1.3,2.8,3.2,2.8,5.9c0,1.9-0.5,3.4-1.5,4.7c-1,1.3-2.3,2.3-3.9,2.9
			c-1.6,0.7-3.2,1-4.8,1c-0.8,0-1.6-0.1-2.2-0.2c-0.1,0-0.1-0.1-0.1-0.2c0-0.1,0-0.2,0.1-0.3C86,42,86,42,86.1,42
			c0.5,0.1,1,0.2,1.6,0.2c1.4,0,2.6-0.6,3.6-1.9c1-1.3,1.4-3.1,1.4-5.5c0-2.4-0.5-4.2-1.6-5.5c-1-1.3-2.6-1.9-4.6-1.9
			c-0.9,0-1.5,0.2-1.8,0.6c-0.3,0.4-0.5,1.2-0.5,2.3v20.5C84.3,51.7,84.4,52.4,84.7,52.8"/>
		<path class="st0" d="M107.6,52.7c-2.3-1.3-4-3.1-5.2-5.3c-1.2-2.2-1.8-4.7-1.8-7.3c0-3.1,0.8-5.7,2.4-7.9c1.6-2.2,3.7-3.9,6.2-5
			c2.5-1.1,5.1-1.7,7.8-1.7c3,0,5.6,0.7,7.8,2c2.2,1.3,4,3.1,5.2,5.3c1.2,2.2,1.8,4.5,1.8,7c0,2.7-0.7,5.2-2.2,7.5s-3.5,4.1-6,5.4
			c-2.5,1.3-5.2,2-8.2,2C112.5,54.7,109.9,54,107.6,52.7 M121.6,52.1c1.4-1,2.5-2.4,3.3-4.3c0.8-1.9,1.2-4.1,1.2-6.7
			c0-2.8-0.4-5.2-1.3-7.4c-0.9-2.2-2.1-3.9-3.8-5.1c-1.7-1.2-3.6-1.8-5.8-1.8c-2.8,0-5,1-6.6,3.1c-1.5,2.1-2.3,4.9-2.3,8.6
			c0,2.9,0.5,5.5,1.4,7.8c0.9,2.3,2.2,4.1,3.8,5.4c1.6,1.3,3.4,1.9,5.5,1.9C118.7,53.6,120.3,53.1,121.6,52.1"/>
		<path class="st0" d="M139.3,33.5c0.6,0.8,1.3,1.6,2.1,2.2c0.8,0.6,2,1.4,3.4,2.3c1.6,1,2.8,1.8,3.7,2.5c0.9,0.7,1.7,1.6,2.4,2.6
			c0.7,1,1,2.2,1,3.6c0,1.6-0.4,2.9-1.3,4.2c-0.9,1.2-2.1,2.2-3.6,2.8c-1.5,0.7-3.3,1-5.2,1c-1.4,0-2.9-0.2-4.4-0.6
			c-1.5-0.4-2.6-0.8-3.1-1.2c-0.2-0.1-0.3-0.2-0.4-0.3c-0.1-0.1-0.1-0.3-0.1-0.5l-0.1-7.1v0c0-0.1,0.1-0.2,0.2-0.2
			c0.2,0,0.2,0,0.3,0.2c0.9,1.8,1.8,3.3,2.5,4.4c0.7,1.1,1.6,2.1,2.7,3c1.1,0.9,2.3,1.3,3.7,1.3c1.2,0,2.3-0.3,3.1-1
			c0.8-0.6,1.2-1.7,1.2-3.3c0-1.3-0.3-2.5-0.9-3.5c-0.6-1-1.4-1.8-2.2-2.5c-0.9-0.7-2.1-1.5-3.6-2.5c-1.5-0.9-2.7-1.7-3.5-2.4
			c-0.8-0.7-1.5-1.5-2.1-2.4c-0.6-0.9-0.9-2-0.9-3.3c0-1.6,0.5-2.9,1.4-4c1-1.1,2.2-1.9,3.7-2.4c1.5-0.5,3.1-0.8,4.7-0.8
			c1.1,0,2.2,0.1,3.3,0.3c1.1,0.2,2,0.4,2.7,0.7c0.3,0.1,0.5,0.2,0.6,0.4c0.1,0.1,0.1,0.3,0.1,0.5v6.6c0,0.1-0.1,0.2-0.2,0.2
			c-0.2,0-0.3,0-0.3-0.1l-0.4-0.9c-0.8-1.9-1.7-3.5-2.7-4.8c-1-1.3-2.5-2-4.4-2c-1.2,0-2.3,0.3-3.1,1c-0.8,0.7-1.2,1.7-1.2,3
			C138.5,31.7,138.8,32.7,139.3,33.5"/>
		<path class="st0" d="M153.9,34.5c0,0.1-0.1,0.1-0.3,0.1c-0.2,0-0.2-0.1-0.2-0.2c0.1-1.2,0.3-2.7,0.4-4.6c0.2-1.9,0.2-3.3,0.2-4.3
			c0-0.2,0.1-0.2,0.3-0.2s0.3,0.1,0.3,0.2c0,0.7,0.9,1,2.7,1c2.7,0.1,5.8,0.1,9.4,0.1c1.8,0,3.8,0,5.9-0.1l3.2,0
			c1.2,0,2.1-0.1,2.6-0.2c0.5-0.1,0.9-0.4,1.1-0.9c0-0.1,0.1-0.2,0.3-0.2s0.3,0.1,0.3,0.2c-0.1,0.9-0.2,2.3-0.3,4.3
			c-0.1,2-0.2,3.6-0.2,4.8c0,0.1-0.1,0.1-0.2,0.1c-0.2,0-0.3,0-0.3-0.1c-0.5-2.3-1.3-4-2.6-5.2c-1.3-1.2-2.9-1.7-4.7-1.7
			c-0.9,0-1.5,0.2-1.8,0.6c-0.3,0.4-0.4,1.1-0.4,2.1v20.7c0,0.9,0.1,1.6,0.3,2c0.2,0.4,0.5,0.7,1.1,0.9c0.5,0.2,1.4,0.2,2.5,0.2
			c0.1,0,0.1,0.1,0.1,0.3c0,0.2,0,0.3-0.1,0.3c-1.1,0-2,0-2.7,0l-3.9,0l-3.8,0c-0.7,0-1.6,0-2.7,0c-0.1,0-0.1-0.1-0.1-0.3
			c0-0.2,0-0.3,0.1-0.3c1.1,0,2-0.1,2.5-0.2c0.5-0.2,0.9-0.4,1.1-0.9c0.2-0.4,0.3-1.1,0.3-2V30.1c0-1-0.1-1.7-0.4-2.1
			c-0.3-0.4-0.9-0.5-1.7-0.5C158.2,27.5,155.6,29.8,153.9,34.5"/>
		<path class="st0" d="M188.4,52.7c-2.3-1.3-4-3.1-5.2-5.3c-1.2-2.2-1.8-4.7-1.8-7.3c0-3.1,0.8-5.7,2.4-7.9c1.6-2.2,3.7-3.9,6.2-5
			c2.5-1.1,5.1-1.7,7.8-1.7c3,0,5.6,0.7,7.8,2c2.2,1.3,4,3.1,5.2,5.3c1.2,2.2,1.8,4.5,1.8,7c0,2.7-0.7,5.2-2.2,7.5s-3.5,4.1-6,5.4
			c-2.5,1.3-5.2,2-8.2,2C193.3,54.7,190.7,54,188.4,52.7 M202.4,52.1c1.4-1,2.5-2.4,3.3-4.3c0.8-1.9,1.2-4.1,1.2-6.7
			c0-2.8-0.4-5.2-1.3-7.4c-0.9-2.2-2.1-3.9-3.8-5.1c-1.7-1.2-3.6-1.8-5.8-1.8c-2.8,0-5,1-6.6,3.1c-1.5,2.1-2.3,4.9-2.3,8.6
			c0,2.9,0.5,5.5,1.4,7.8c0.9,2.3,2.2,4.1,3.8,5.4c1.6,1.3,3.4,1.9,5.5,1.9C199.5,53.6,201,53.1,202.4,52.1"/>
		<g>
			<g>
				<defs>
					<rect id="SVGID_1_" x="0" y="0" width="32" height="20"/>
				</defs>
				<clipPath id="SVGID_2_">
					<use xlink:href="#SVGID_1_"  style="overflow:visible;"/>
				</clipPath>
				<path class="st1" d="M0.2,1.1c2.6,0,4.5,0.2,5.8,0.5c1.2,0.3,2.1,0.9,2.5,1.7C9,4.1,9.2,5.6,9.2,7.2V20c0,0,14.1-16.4,14.3-16.6
					C24.1,2.7,24.8,2,26,1.6c1.2-0.4,3.1-0.5,5.6-0.5c0.2,0,0.4-0.2,0.4-0.5C32,0.2,31.9,0,31.7,0l-6.3,0.1
					c-3.8,0.1-6.9,0.2-9.5,0.2c-2.3,0-5.3-0.1-9.1-0.2L0.2,0C0.1,0,0,0.2,0,0.5C0,0.9,0.1,1.1,0.2,1.1"/>
			</g>
		</g>
		<path class="st0" d="M31.7,53.6c-2.6,0-4.5-0.1-5.7-0.4c-1.2-0.3-2-0.9-2.4-1.7c-0.4-0.8-0.6-2.2-0.6-4v-37l-13.8,16v21
			c0,1.8-0.2,3.1-0.7,3.9c-0.5,0.9-1.3,1.4-2.5,1.7c-1.2,0.3-3.2,0.4-5.8,0.4c-0.2,0-0.2,0.2-0.2,0.5c0,0.4,0.1,0.5,0.2,0.5
			c2.8,0,5,0,6.6-0.1l9.1-0.1l9.3,0.1c1.6,0.1,3.7,0.1,6.4,0.1c0.2,0,0.4-0.2,0.4-0.5C32,53.8,31.9,53.6,31.7,53.6"/>
	</g>
</g>
</svg>
