<svg xmlns="http://www.w3.org/2000/svg" width="1019" height="180" viewBox="0 0 1019 180" fill="none"><g clip-path="url(#clip0)"><path d="M428.236 90V30.66H421.528V56.374H397.018V30.66H390.31V90H397.018V61.964H421.528V90H428.236ZM469.974 65.662V63.684C469.974 54.654 465.244 48.118 455.698 48.118C443.658 48.118 439.702 57.492 439.702 68.156C439.702 81.4 445.464 90.946 459.654 90.946C462.836 90.946 466.018 90.688 469.028 89.742V84.926C466.276 85.614 463.782 86.044 460.944 86.044C450.882 86.044 446.41 77.014 446.41 68.07V65.662H469.974ZM463.266 60.76H446.84C447.7 56.288 450.624 53.02 455.44 53.02C459.912 53.02 463.266 56.288 463.266 60.76ZM487.977 38.4V30.66H480.237V38.4H487.977ZM487.031 90V49.064H481.183V90H487.031ZM507.775 90V30.66H501.927V90H507.775ZM552.771 69.962C552.771 60.416 549.933 48.118 538.151 48.118C533.077 48.118 528.605 50.956 527.057 55.858H526.885V30.66H521.037V73.144C521.037 83.378 524.821 90.946 536.345 90.946C548.729 90.946 552.771 80.712 552.771 69.962ZM546.063 69.79C546.063 76.154 544.343 86.044 536.173 86.044C528.175 86.044 526.885 77.358 526.885 71.166C526.885 65.06 528.863 53.02 537.033 53.02C544.687 53.02 546.063 64.114 546.063 69.79ZM583.254 54.396V48.118C576.718 48.118 572.16 51.042 569.58 56.976H569.408V49.064H563.56V90H569.408V73.058C569.408 64.114 572.676 54.396 583.254 54.396ZM621.303 69.618C621.303 58.524 617.175 48.118 604.447 48.118C591.805 48.118 587.763 58.61 587.763 69.618C587.763 80.626 591.805 90.946 604.447 90.946C617.175 90.946 621.303 80.712 621.303 69.618ZM614.595 69.532C614.595 76.154 613.047 86.044 604.447 86.044C595.933 86.044 594.471 76.068 594.471 69.532C594.471 62.996 595.933 53.02 604.447 53.02C612.961 53.02 614.595 62.91 614.595 69.532ZM661.417 90V60.76C661.417 54.31 658.149 48.118 650.925 48.118C643.787 48.118 640.175 52.246 638.111 58.524H637.939V49.064H632.091V90H637.939V73.144C637.939 66.694 641.379 53.966 649.549 53.966C656.257 53.966 655.569 62.652 655.569 67.296V90H661.417ZM704.417 90V60.76C704.417 54.31 701.149 48.118 693.925 48.118C686.787 48.118 683.175 52.246 681.111 58.524H680.939V49.064H675.091V90H680.939V73.144C680.939 66.694 684.379 53.966 692.549 53.966C699.257 53.966 698.569 62.652 698.569 67.296V90H704.417ZM749.825 71.51V65.662H715.683V71.51H749.825ZM790.245 36.25V30.66H761.521V90H768.229V61.706H789.213V56.116H768.229V36.25H790.245ZM817.402 54.396V48.118C810.866 48.118 806.308 51.042 803.728 56.976H803.556V49.064H797.708V90H803.556V73.058C803.556 64.114 806.824 54.396 817.402 54.396ZM850.979 90V61.276C850.979 52.16 846.507 48.118 837.219 48.118C829.909 48.118 822.685 51.3 822.513 59.556H829.049C829.651 54.654 832.575 53.02 837.391 53.02C845.561 53.02 845.131 59.556 845.131 65.662V66.522C843.755 66.78 842.465 66.78 841.089 66.78C833.521 66.78 821.567 70.134 821.567 79.508C821.567 86.474 825.523 90.946 832.575 90.946C837.133 90.946 842.895 88.882 845.131 84.582H845.303V90H850.979ZM845.131 71.424C845.131 74.864 844.959 76.584 843.583 79.68C841.863 83.378 838.165 86.044 834.037 86.044C830.597 86.044 828.275 83.55 828.275 80.11C828.275 73.574 836.445 71.424 841.691 71.424H845.131ZM893.97 90V60.76C893.97 54.31 890.702 48.118 883.478 48.118C876.34 48.118 872.728 52.246 870.664 58.524H870.492V49.064H864.644V90H870.492V73.144C870.492 66.694 873.932 53.966 882.102 53.966C888.81 53.966 888.122 62.652 888.122 67.296V90H893.97ZM936.798 90L920.286 67.21L934.992 49.064H927.854L913.664 66.35H913.492V30.66H907.644V90H913.492V68.156H913.664L929.574 90H936.798ZM971.781 65.662V63.684C971.781 54.654 967.051 48.118 957.505 48.118C945.465 48.118 941.509 57.492 941.509 68.156C941.509 81.4 947.271 90.946 961.461 90.946C964.643 90.946 967.825 90.688 970.835 89.742V84.926C968.083 85.614 965.589 86.044 962.751 86.044C952.689 86.044 948.217 77.014 948.217 68.07V65.662H971.781ZM965.073 60.76H948.647C949.507 56.288 952.431 53.02 957.247 53.02C961.719 53.02 965.073 56.288 965.073 60.76ZM1011.8 90V60.76C1011.8 54.31 1008.53 48.118 1001.31 48.118C994.17 48.118 990.558 52.246 988.494 58.524H988.322V49.064H982.474V90H988.322V73.144C988.322 66.694 991.762 53.966 999.932 53.966C1006.64 53.966 1005.95 62.652 1005.95 67.296V90H1011.8Z" fill="black"></path><path fill-rule="evenodd" clip-rule="evenodd" d="M357.99 180L177.872 179.998C198.21 122.045 198.261 58.0287 177.868 0L360 0.00211668V180" fill="#003366"></path><path fill-rule="evenodd" clip-rule="evenodd" d="M337.563 33.2232C339.001 31.6191 338.864 30.3189 337.259 30.3189H329.376C327.773 30.3189 326.968 30.1452 324.386 32.7251L302.371 56.5597L302.311 33.2232C302.311 31.6191 301.01 30.3189 299.404 30.3189H294.053C292.448 30.3189 291.145 31.6191 291.145 33.2232L291.143 86.2382C291.143 87.8403 292.444 89.1405 294.049 89.1405H299.425C301.03 89.1405 302.331 87.8403 302.331 86.2382L302.336 72.3757L312.116 61.8145L327.216 86.2382C328.199 87.8403 329.578 89.1405 331.184 89.1405H339.249C340.856 89.1405 341.361 87.8403 340.378 86.2382L319.55 53.5168L337.563 33.2232Z" fill="white"></path><path fill-rule="evenodd" clip-rule="evenodd" d="M208.431 86.2376C208.431 87.8418 209.732 89.142 211.335 89.142H217.216C218.823 89.142 220.124 87.8418 220.124 86.2376L220.149 33.2247C220.149 31.6206 218.848 30.3203 217.243 30.3203H211.366C209.759 30.3203 208.46 31.6206 208.46 33.2247L208.431 86.2376Z" fill="white"></path><path fill-rule="evenodd" clip-rule="evenodd" d="M267.332 33.2247C267.332 31.6206 268.633 30.3203 270.238 30.3203H276.048C277.656 30.3203 278.957 31.6206 278.957 33.2247L278.949 86.2397C278.949 87.8418 277.647 89.142 276.042 89.142H270.271C268.666 89.142 267.365 87.8418 267.365 86.2397L267.344 64.402H243.957L243.961 86.2397C243.961 87.8418 242.662 89.142 241.055 89.142H235.246C233.641 89.142 232.34 87.8418 232.34 86.2397L232.342 33.2247C232.342 31.6206 233.643 30.3203 235.248 30.3203H241.075C242.678 30.3203 243.982 31.6206 243.982 33.2247L243.957 54.5518H267.344L267.332 33.2247Z" fill="white"></path><path fill-rule="evenodd" clip-rule="evenodd" d="M180.433 0L0 0.00211668V180L180.431 179.998C200.802 122.045 200.857 58.0287 180.433 0Z" fill="#CCD7E6"></path><path fill-rule="evenodd" clip-rule="evenodd" d="M134.108 71.1126C134.79 70.2593 135.301 69.2352 135.301 67.5285C135.301 66.6752 136.664 63.0911 138.539 63.0911C139.788 63.0911 140.981 64.684 140.981 65.8218C140.981 68.0974 142.401 70.2024 143.48 72.1935V73.2744C143.48 73.4451 143.026 74.0709 143.026 74.2416V75.0949C143.026 75.9483 145.923 77.4274 145.923 81.3528C145.923 83.9698 143.708 84.3111 143.708 86.9849C143.708 89.4312 144.446 90.3983 145.128 93.0153C145.298 93.6411 147.4 97.2251 147.4 98.6474V100.866C147.4 100.866 146.945 103.369 146.945 104.621C146.945 109.855 152.625 111.846 156.09 115.657C156.715 116.397 156.772 117.706 156.772 118.786L156.545 121.802C156.545 122.939 156.942 123.907 157.51 124.931V125.727C157.51 127.206 153.818 128.628 153.307 128.856H152.057C151.035 128.344 150.126 127.718 148.933 127.718C147.684 127.718 136.664 129.197 136.664 131.928V132.611C136.664 132.781 137.005 133.862 137.005 134.374C137.005 135.797 135.528 137.333 133.938 137.56C132.12 137.845 130.643 140.12 129.564 141.656C127.349 144.785 127.349 146.606 124.225 146.606C121.441 146.606 121.669 144.615 119.34 142.453C119.453 141.77 119.794 141.201 120.249 140.575C121.328 139.039 122.805 136.764 124.622 136.479C126.156 136.252 127.69 134.716 127.69 133.293C127.69 132.781 127.349 131.7 127.349 131.53V130.847C127.349 128.116 138.311 126.637 139.618 126.637C140.811 126.637 141.663 127.263 142.742 127.775H143.992C144.503 127.548 148.195 126.125 148.195 124.646V123.85C147.627 122.826 147.229 121.915 147.229 120.721L147.457 117.649C147.457 116.568 147.4 115.259 146.775 114.52C143.31 110.708 137.63 108.66 137.63 103.483C137.63 102.231 138.084 99.7852 138.084 99.7283V97.5096C138.084 96.0873 135.926 92.5033 135.812 91.8775C135.074 89.2605 134.392 88.2934 134.392 85.8471C134.392 83.1733 136.607 82.832 136.607 80.215C136.607 76.2896 133.711 74.8105 133.711 73.9571V73.1038C133.711 72.9331 134.165 72.3073 134.165 72.1366V71.1126H134.108ZM86.054 34.2479C86.6788 34.2479 87.3604 34.8737 88.042 35.0443V36.0115C88.1556 36.4666 87.9284 37.0924 87.474 37.0924C87.0196 37.0924 86.1108 35.6132 85.0884 34.3048L86.054 34.2479ZM78.2722 86.7005C78.4426 86.7005 78.7266 86.7574 79.1242 86.928C78.3858 87.6107 77.4769 88.4072 76.7953 88.4072C76.6817 88.4072 76.2273 88.2934 75.6593 88.0658C76.1705 87.44 76.8521 86.928 77.5905 86.7005H78.2722ZM59.6412 131.928C57.6532 133.919 57.3692 134.431 54.8131 134.431L53.2794 134.374C52.7682 134.204 52.1434 134.204 51.5754 134.147L47.0881 134.261C46.9177 134.261 46.2928 134.261 45.4408 134.204C44.0208 134.09 42.9983 133.692 42.2031 133.066C42.7711 133.123 43.4528 133.123 43.9072 133.293L45.4408 133.35C48.2241 133.35 48.2809 132.724 50.837 130.278C51.2346 129.88 51.9162 129.937 52.3706 129.766C52.7114 129.652 53.109 129.482 53.3362 129.482H54.5291C55.7787 129.482 57.4828 131.018 59.6412 131.928ZM89.7461 128.116C88.2692 129.425 87.1332 131.075 83.4411 131.416C82.8163 131.473 82.1915 131.7 81.5099 131.757C80.2602 131.928 78.897 131.985 77.6473 132.269C74.7505 132.838 74.5233 133.635 71.9104 133.635C69.8087 133.635 67.9911 132.554 66.571 131.7C67.0254 131.53 67.5935 131.359 68.3319 131.245C69.5815 130.961 70.9447 130.904 72.1944 130.733C72.876 130.62 73.5008 130.449 74.1256 130.392C80.2602 129.823 79.3514 125.556 84.5203 125.556C85.8268 125.556 86.906 126.523 88.0988 127.092C88.7237 127.32 89.2917 127.661 89.7461 128.116ZM125.929 64.8547L125.986 66.3338C125.986 69.5766 124.338 70.5437 121.839 70.5437C119.737 70.5437 116.784 69.9179 116.784 66.9596V65.8787L116.613 63.7738C116.5 62.8067 116.443 62.636 116.443 61.8964C116.443 60.8155 115.761 58.3692 114.114 58.3692C113.092 58.3692 112.353 59.6208 111.785 59.6208C111.501 59.6208 111.16 59.3364 111.16 58.995C111.16 58.6537 112.808 55.2403 112.808 54.3869V53.2491C112.637 50.9735 108.945 48.8686 108.945 46.3655C108.945 46.0241 109.286 44.8294 109.286 44.6588V43.521L109.002 43.0658C109.343 43.4072 109.627 43.6347 110.024 43.6347C111.615 43.6347 112.41 40.6196 114.114 40.6196C115.25 40.6196 116.84 41.9849 117.579 42.9521C117.977 43.521 118.204 44.0899 118.545 44.6019V45.7397C118.545 45.8534 118.204 47.105 118.204 47.4464C118.204 49.9495 121.896 52.0545 122.066 54.3301V55.4679C122.066 56.3212 120.419 59.7346 120.419 60.0759C120.419 60.4742 120.817 60.7017 121.044 60.7017C121.612 60.7017 122.35 59.4502 123.373 59.4502C125.077 59.4502 125.702 61.8964 125.702 62.9773C125.702 63.7738 125.758 63.9445 125.758 64.5703L125.929 64.8547ZM101.788 40.6196V42.0987C101.447 42.3832 101.106 42.6107 100.709 42.6107C99.516 42.6107 98.8344 40.1076 97.1871 40.1076C95.2559 40.1076 95.199 43.1796 93.8358 43.1796C92.927 43.1796 92.5294 41.7005 92.5294 41.0747V39.5387L92.6998 35.6132C92.8134 34.9875 92.359 34.0203 91.7341 33.3945C93.8358 33.3945 96.0511 38.1733 96.9031 38.1733C97.3575 38.1733 97.5847 37.5475 97.5847 37.3199L97.4711 36.0115C97.4711 35.1012 98.948 33.8497 99.8 33.8497C101.05 33.8497 102.186 35.6132 102.072 36.6373L102.015 40.3351L101.788 40.6196Z" fill="black"></path><path d="M82.5323 32.3711C84.4635 32.3711 86.622 37.1499 87.474 37.1499C87.9284 37.1499 88.1556 36.5241 88.1556 36.2965C88.1556 36.1258 88.1556 36.1258 88.042 36.0689V34.988C88.042 34.0778 89.5189 32.8262 90.3709 32.8262C91.6206 32.8262 92.7566 34.5898 92.643 35.6138L92.5862 39.3117C92.5862 39.3686 92.4726 39.3686 92.4726 39.4823V41.0184C92.4726 41.6442 92.8702 43.1233 93.779 43.1233C95.1423 43.1233 95.2559 40.0512 97.1303 40.0512C98.7775 40.0512 99.4024 42.5544 100.652 42.5544C102.242 42.5544 103.038 39.5392 104.742 39.5392C105.878 39.5392 107.468 40.9046 108.263 41.8717C108.661 42.4406 108.888 43.0095 109.229 43.5215V44.6593C109.229 44.7731 108.888 46.0247 108.888 46.366C108.888 48.8692 112.58 50.9741 112.751 53.2497V54.3875C112.751 55.2409 111.104 58.6543 111.104 58.9956C111.104 59.3938 111.501 59.6214 111.728 59.6214C112.296 59.6214 113.035 58.3698 114.057 58.3698C115.761 58.3698 116.386 60.8161 116.386 61.897C116.386 62.6935 116.443 62.8641 116.443 63.4899C116.443 63.6037 116.556 63.6606 116.556 63.7744L116.613 65.7086C116.613 65.7655 116.613 65.8793 116.727 65.8793V66.9602C116.727 69.9185 119.624 70.5443 121.782 70.5443C124.281 70.5443 125.929 69.5772 125.929 66.4482C125.929 65.5949 127.292 62.0108 129.166 62.0108C130.416 62.0108 131.609 63.6037 131.609 64.6846C131.609 66.9602 133.029 69.0652 134.108 71.0563V72.1372C134.108 72.3079 133.654 72.9337 133.654 73.1043V73.9577C133.654 74.811 136.551 76.2902 136.551 80.2156C136.551 82.8325 134.335 83.1739 134.335 85.8477C134.335 88.294 135.074 89.2611 135.755 91.8781C135.926 92.5038 138.027 96.0879 138.027 97.5102V99.7289C138.027 99.7289 137.573 102.232 137.573 103.484C137.573 108.717 143.253 110.709 146.718 114.52C147.343 115.26 147.4 116.568 147.4 117.649L147.173 120.721C147.173 121.859 147.57 122.826 148.138 123.85V124.647C148.138 126.126 144.446 127.548 143.935 127.776H142.685C141.663 127.264 140.754 126.638 139.561 126.638C138.311 126.638 127.292 128.117 127.292 130.848V131.53C127.292 131.701 127.633 132.839 127.633 133.294C127.633 134.716 126.156 136.252 124.565 136.48C122.748 136.764 121.271 139.04 120.192 140.576C117.92 143.705 117.977 145.525 114.852 145.525C112.069 145.525 112.296 143.534 109.967 141.372C109.229 140.69 105.139 138.755 104.912 138.755H103.662C103.151 138.755 102.072 139.154 101.447 139.154C99.8568 139.154 97.9255 138.755 97.2439 137.106C96.7895 136.025 96.7327 134.716 95.5399 133.977C94.631 133.408 92.927 133.465 92.4158 132.27C91.5637 130.279 90.2005 128.003 88.042 127.093C86.8492 126.581 85.77 125.557 84.4635 125.557C79.2946 125.557 80.2034 129.824 74.0688 130.393C73.444 130.449 72.8192 130.677 72.1376 130.734C70.888 130.905 69.5247 130.961 68.2751 131.246C65.3782 131.815 65.151 132.611 62.5381 132.611C59.0164 132.611 56.2899 129.539 54.5859 129.539H53.393C53.1658 129.539 52.7114 129.71 52.4274 129.824C51.973 129.937 51.2914 129.937 50.8938 130.336C48.3377 132.782 48.2809 133.408 45.4976 133.408L43.964 133.351C43.4528 133.18 42.8279 133.18 42.2599 133.123L37.7726 133.237C37.6022 133.237 36.9774 133.237 36.1253 133.18C33.0013 132.896 31.4108 131.246 31.4108 128.572C31.4108 127.036 31.8084 127.093 31.8084 125.557C31.8084 124.476 31.354 124.476 31.2404 123.111C31.07 121.347 30.218 119.925 28.6275 119.64C28.1163 119.527 27.6051 118.901 27.2643 118.446C26.3555 117.308 26.3555 115.829 26.3555 114.35C26.3555 113.155 26.8099 111.79 28.1731 111.79C29.0819 111.79 29.8204 112.529 30.7292 112.529C31.6948 112.529 31.8652 111.733 32.2628 110.822C32.49 110.31 32.8309 109.798 33.3989 109.457C34.1941 108.945 35.3869 109.173 36.3526 108.945C37.6022 108.661 39.1926 108.319 40.3855 107.238C42.4871 105.304 42.1463 102.289 43.0552 100.013C43.396 99.16 44.532 98.4773 45.3272 98.2497H46.2928C47.1449 98.2497 49.0761 99.3306 49.8713 99.3306C51.2346 99.3306 51.2346 97.3395 51.9162 96.6568C52.9954 95.519 55.0971 93.4141 56.8579 93.4141C58.6188 93.4141 59.8684 95.3483 61.2885 95.3483C63.7877 95.3483 65.719 88.0095 65.7758 87.8957C66.1734 86.8148 67.1958 85.8477 68.2751 85.5633H68.9567C69.9223 85.5633 76.1705 88.3509 76.7953 88.3509C77.8177 88.3509 79.2378 86.7011 79.9762 86.1322C80.601 85.6201 81.4531 85.5633 82.2483 85.3357H84.2931C84.4635 85.3357 84.4067 85.4495 84.4635 85.4495C85.0884 85.4495 85.4292 85.5064 85.5428 85.5064C87.5308 85.5064 88.8941 84.3117 88.8941 82.0361C88.8941 81.3534 88.9509 81.0689 88.9509 80.8983C88.9509 78.7365 86.7356 78.1107 84.7475 77.7693C82.8163 77.428 81.3394 73.8439 81.3394 71.9665C81.3394 69.2358 84.2363 67.8705 84.2363 66.5051V65.7655C84.2363 64.6277 81.3394 61.7263 81.3394 59.6214C81.3394 57.5165 83.5547 56.4925 83.5547 55.0702C83.5547 51.7706 72.024 53.4204 72.024 48.8692C72.024 47.7314 73.728 46.1385 73.728 45.4558V44.4887C73.2168 44.0904 73.1032 43.6922 72.592 43.6922C72.024 43.6922 71.456 43.9767 71.0016 44.0904H70.2631C69.2407 44.0904 65.2078 42.2131 65.2078 40.7339C65.2078 39.8237 65.8326 39.5392 66.6846 39.0272C67.5367 38.5152 68.0479 37.3774 68.5591 36.6378C70.3767 34.0778 73.3872 33.9071 75.9433 33.1107H76.6249C77.3633 33.1107 78.2154 34.0209 79.0674 34.0209C80.3738 34.0778 81.2258 32.3711 82.5323 32.3711Z" fill="white"></path></g><defs><clipPath id="clip0"><rect width="1019" height="180" fill="white"></rect></clipPath></defs></svg>