<svg xmlns="http://www.w3.org/2000/svg" xmlns:xlink="http://www.w3.org/1999/xlink" id="Ebene_1" x="0px" y="0px" viewBox="0 0 283.5 98.6" style="enable-background:new 0 0 283.5 98.6;" xml:space="preserve"><style type="text/css">	.st0{fill:#30383B;}	.st1{fill:#FFD500;}	.st2{fill:#FFFFFF;}</style><g>	<g>		<path class="st0" d="M98.6,68.7c1.3,0,2.5-0.2,3.7-0.6c1.2-0.4,2.2-1,3.2-1.7l-1.9-3.1c-0.2-0.2-0.3-0.3-0.4-0.4   c-0.1-0.1-0.3-0.1-0.5-0.1c-0.2,0-0.3,0-0.4,0.1c-0.2,0.1-0.4,0.2-0.6,0.3c-0.2,0.1-0.4,0.2-0.7,0.3c-0.3,0.1-0.6,0.1-1,0.1   c-0.7,0-1.2-0.2-1.6-0.7c-0.4-0.5-0.6-1.1-0.6-1.9V46.9h6.9v-4.5h-6.9v-8.2h-3.3c-0.4,0-0.7,0.1-1,0.3c-0.3,0.2-0.4,0.4-0.5,0.8   l-1.3,7.1l-4.2,0.7v2.5c0,0.5,0.2,0.8,0.4,1c0.3,0.2,0.5,0.4,0.9,0.4h2.6v14.5c0,2.2,0.6,4,1.8,5.3C94.6,68,96.4,68.7,98.6,68.7    M83.1,41.8c-1.6,0-3,0.5-4.2,1.4c-1.3,0.9-2.3,2.2-3.3,3.8l-0.4-3.2c-0.1-0.6-0.3-1-0.5-1.2c-0.3-0.3-0.7-0.4-1.3-0.4h-3.7h-3.8   v3c0,0.9,0.4,1.4,1.3,1.6c0.4,0.1,0.4,0.1,2.5,0.5v16c-2.2,0.4-2.1,0.4-2.5,0.5c-0.9,0.2-1.3,0.7-1.3,1.6v3h3.8H76h3.8v-3   c0-0.9-0.4-1.4-1.3-1.6c-0.4-0.1-0.4-0.1-2.5-0.5V52.1c0.7-1.4,1.4-2.5,2.3-3.2c0.9-0.7,2-1.1,3.4-1.1c0.7,0,1.3,0.1,1.8,0.2   c0.5,0.1,0.8,0.2,1,0.2c0.3,0,0.6-0.1,0.7-0.2c0.2-0.1,0.3-0.3,0.3-0.6l0.8-4.7C85.5,42,84.4,41.8,83.1,41.8 M54.7,61.5   c-0.5,0.5-0.9,0.9-1.4,1.2c-0.5,0.4-0.9,0.6-1.4,0.9c-0.5,0.3-1,0.5-1.6,0.6c-0.6,0.1-1.1,0.2-1.8,0.2c-1.1,0-1.9-0.3-2.5-0.7   c-0.7-0.5-1-1.3-1-2.4c0-0.6,0.2-1.1,0.5-1.6c0.3-0.5,0.8-0.9,1.6-1.2s1.8-0.7,3-0.9c1.2-0.3,2.7-0.4,4.6-0.4V61.5z M62.7,63.7   c-0.1,0-0.3-0.1-0.6-0.1c-0.3-0.1-0.8-0.2-1.4-0.3V51.8c0-1.5-0.2-2.8-0.6-4.1c-0.4-1.2-1.1-2.3-1.9-3.2c-0.8-0.9-1.8-1.6-3-2.1   c-1.2-0.5-2.6-0.8-4.1-0.8c-4.2,0-7.8,1.4-10.8,4.2l1.2,2c0.2,0.3,0.4,0.6,0.7,0.8c0.3,0.2,0.7,0.3,1.1,0.3c0.5,0,1-0.1,1.4-0.4   c0.4-0.3,0.9-0.5,1.4-0.8c0.5-0.3,1.1-0.6,1.8-0.8c0.7-0.3,1.5-0.4,2.5-0.4c1.4,0,2.5,0.4,3.2,1.3c0.7,0.9,1.1,2.1,1.1,3.9v1.5   c-2.9,0-5.5,0.3-7.5,0.8c-2,0.5-3.6,1.2-4.8,1.9c-1.2,0.8-2.1,1.6-2.6,2.6c-0.5,1-0.8,2-0.8,2.9c0,1.2,0.2,2.2,0.6,3.1   c0.4,0.9,0.9,1.6,1.6,2.2c0.7,0.6,1.5,1,2.4,1.3c0.9,0.3,1.9,0.5,3.1,0.5c0.9,0,1.8-0.1,2.5-0.3s1.5-0.4,2.1-0.7   c0.7-0.3,1.4-0.7,2-1.1c0.7-0.5,1.3-1,1.9-1.6l0.6,1.8c0.2,0.6,0.4,1,0.8,1.1c0.4,0.2,0.8,0.3,1.4,0.3h2.1h0.7H64v-3   C64,64.4,63.6,63.9,62.7,63.7 M31,68.7c1.3,0,2.5-0.2,3.7-0.6c1.2-0.4,2.2-1,3.2-1.7l-1.9-3.1c-0.2-0.2-0.3-0.3-0.4-0.4   c-0.1-0.1-0.3-0.1-0.5-0.1c-0.2,0-0.3,0-0.4,0.1c-0.2,0.1-0.4,0.2-0.6,0.3c-0.2,0.1-0.4,0.2-0.7,0.3c-0.3,0.1-0.6,0.1-1,0.1   c-0.7,0-1.2-0.2-1.6-0.7c-0.4-0.5-0.6-1.1-0.6-1.9V46.9h6.9v-4.5h-6.9v-8.2h-3.3c-0.4,0-0.7,0.1-1,0.3c-0.3,0.2-0.4,0.4-0.5,0.8   l-1.3,7.1L20,43.1v2.5c0,0.5,0.2,0.8,0.4,1c0.3,0.2,0.5,0.4,0.9,0.4h2.6v14.5c0,2.2,0.6,4,1.8,5.3C26.9,68,28.7,68.7,31,68.7    M18.2,57.3c-0.4-0.8-0.8-1.4-1.4-1.9c-0.6-0.6-1.3-1-2-1.3c-0.8-0.4-1.6-0.7-2.4-1c-0.8-0.3-1.6-0.5-2.3-0.7   c-0.8-0.2-1.4-0.5-2-0.8c-0.6-0.3-1.1-0.6-1.4-1c-0.4-0.4-0.6-0.9-0.6-1.4c0-0.9,0.4-1.6,1.1-2.1c0.7-0.5,1.7-0.8,2.9-0.8   c1.2,0,2.4,0.2,3.1,0.4c0.2,2,0.3,2.6,0.4,2.8c0.2,0.6,0.5,1,1.2,1h2.1h0.6h0.2v-7.4h0c-3.7-1.1-5.1-1.4-7.6-1.4   c-1.6,0-3,0.3-4.2,0.7c-1.2,0.4-2.3,1-3.1,1.7c-0.8,0.7-1.5,1.6-1.9,2.5c-0.4,1-0.6,2-0.6,3c0,1.2,0.2,2.1,0.6,3   c0.4,0.8,0.8,1.5,1.4,2c0.6,0.6,1.3,1,2.1,1.4c0.8,0.4,1.5,0.7,2.3,1c0.8,0.3,1.6,0.5,2.4,0.8c0.8,0.2,1.4,0.5,2,0.8   c0.6,0.3,1.1,0.6,1.5,1c0.4,0.4,0.5,0.9,0.5,1.5c0,0.4-0.1,0.8-0.2,1.2c-0.2,0.4-0.4,0.7-0.8,1c-0.4,0.3-0.8,0.5-1.3,0.7   c-0.5,0.2-1.2,0.3-1.9,0.3c-1.1,0-2.7,0-4.1-0.4c-0.2-2-0.3-2.7-0.4-3c-0.2-0.6-0.5-1-1.2-1H0.9H0.3H0v4.8v2.5   c1.9,0.7,5,1.4,8.3,1.4c1.7,0,3.2-0.2,4.5-0.7c1.3-0.4,2.4-1,3.3-1.8c0.9-0.8,1.5-1.7,2-2.7s0.7-2.2,0.7-3.5   C18.7,58.9,18.5,58.1,18.2,57.3"></path>		<path class="st1" d="M160.7,59c-0.3,1.1-0.8,2-1.3,2.7c-0.6,0.7-1.2,1.3-1.9,1.6c-0.8,0.4-1.6,0.5-2.6,0.5c-1,0-1.9-0.2-2.7-0.5   c-0.8-0.4-1.6-1-2.3-1.8V49.8c0.8-1,1.7-1.8,2.6-2.3c0.9-0.6,2-0.8,3.4-0.8c0.8,0,1.5,0.2,2.2,0.5c0.7,0.3,1.2,0.8,1.7,1.5   s0.8,1.5,1.1,2.5c0.3,1.1,0.4,2.4,0.4,3.9C161.1,56.6,161,57.9,160.7,59 M166.9,49.4c-0.5-1.6-1.1-3-2-4.2c-0.9-1.1-1.9-2-3.1-2.6   c-1.2-0.6-2.5-0.9-3.9-0.9c-1.8,0-3.4,0.4-4.8,1.1c-1.4,0.8-2.5,1.7-3.6,2.9l-0.5-2.4c-0.1-0.4-0.3-0.7-0.6-0.9   c-0.3-0.2-0.7-0.3-1.1-0.3h-3.8h-3.9v3c0,0.9,0.4,1.4,1.3,1.6c0.1,0,0.2,0,0.3,0c0.2,0,0.4,0.1,0.8,0.2c0.4,0.1,0.9,0.2,1.5,0.3   v24.5c-0.6,0.1-1.2,0.3-1.5,0.3c-0.4,0.1-0.6,0.1-0.8,0.1c-0.2,0-0.3,0-0.3,0c-0.9,0.2-1.3,0.8-1.3,1.6v3h3.9h6.3h3.9v-3   c0-0.9-0.4-1.4-1.3-1.6c0,0-0.2,0-0.3,0c-0.2-0.1-0.4-0.1-0.8-0.1c-0.4,0-0.9-0.2-1.5-0.3v-5.6c0.8,0.8,1.8,1.4,2.8,1.9   c1,0.5,2.2,0.7,3.7,0.7c1.7,0,3.3-0.3,4.7-1c1.4-0.7,2.5-1.6,3.5-2.8c1-1.2,1.7-2.6,2.2-4.3c0.5-1.7,0.8-3.5,0.8-5.4   C167.6,52.9,167.4,51.1,166.9,49.4 M136.9,63.7c-0.4-0.1-0.4-0.1-2.5-0.5v-21H128h-3.8v3c0,0.9,0.4,1.4,1.3,1.6   c0.4,0,0.4,0.1,2.5,0.5v13.8c-0.9,0.9-1.7,1.5-2.7,2c-1,0.5-2,0.7-3.1,0.7c-1.5,0-2.6-0.4-3.3-1.3c-0.7-0.9-1.1-2.1-1.1-3.7V42.2   h-6.3h-3.9v3c0,0.9,0.4,1.4,1.3,1.6c0.4,0,0.4,0,2.6,0.5v11.5c0,1.5,0.2,2.8,0.6,4c0.4,1.2,0.9,2.2,1.7,3.1   c0.8,0.9,1.7,1.6,2.7,2.1c1.1,0.5,2.4,0.7,3.8,0.7c0.9,0,1.6-0.1,2.4-0.3c0.8-0.2,1.5-0.5,2.1-0.8c0.7-0.3,1.3-0.7,1.8-1.1   c0.6-0.5,1.1-1,1.7-1.5l0.5,2.1c0.3,0.8,0.8,1.2,1.6,1.2h3.9h3.8v-3C138.1,64.4,137.7,63.9,136.9,63.7"></path>		<path class="st0" d="M234.2,98.6c27.2,0,49.3-22.1,49.3-49.3S261.4,0,234.2,0s-49.3,22.1-49.3,49.3S206.9,98.6,234.2,98.6"></path>		<path class="st2" d="M220.2,55c0,1.5-0.1,2.9-0.4,4c-0.3,1.1-0.8,2-1.3,2.8c-0.5,0.7-1.2,1.3-1.9,1.6c-0.8,0.4-1.6,0.5-2.6,0.5   c-1.7,0-3.4-0.2-5.1-0.5V49.8c0.8-1,1.7-1.8,2.6-2.3c0.9-0.6,2-0.8,3.4-0.8c0.8,0,1.5,0.2,2.2,0.5c0.7,0.3,1.2,0.8,1.7,1.4   s0.8,1.5,1.1,2.6C220.1,52.2,220.2,53.5,220.2,55 M225.9,60.5c0.5-1.7,0.8-3.5,0.8-5.5c0-2.1-0.3-4-0.7-5.7   c-0.5-1.6-1.1-3.1-2-4.2c-0.9-1.1-1.9-2-3.1-2.6c-1.2-0.6-2.5-0.9-3.9-0.9c-1.7,0-3.3,0.3-4.6,1c-1.3,0.7-2.5,1.5-3.5,2.7v-15   h-6.3h-4.1v3c0,0.9,0.4,1.4,1.3,1.6c0.1,0,0.2,0.1,0.4,0.1c0.2,0,0.5,0.1,0.9,0.2c0.4,0.1,1,0.2,1.6,0.3v23.6v8.2   c4.8,1,9,1.4,12.8,1.4c1.7,0,3.3-0.3,4.6-1c1.4-0.7,2.6-1.6,3.6-2.9C224.6,63.6,225.4,62.1,225.9,60.5 M241.5,59.5   c-0.2,0.7-0.4,1.5-0.6,2.2c-0.1-0.7-0.3-1.5-0.4-2.2c-0.1-0.7-0.3-1.5-0.5-2.2L237.3,47c1.2-0.2,1.3-0.3,1.6-0.3   c0.9-0.2,1.3-0.7,1.3-1.6v-3h-5.7h-5h-2.1v3c0,0.9,0.4,1.4,1.3,1.6c0.4,0.1,0.3,0.1,2.4,0.5l6.7,21.1h4.8c0.7,0,1.1-0.4,1.4-1.1   l3.5-11h-5l-0.3,1.1C241.9,58.1,241.7,58.8,241.5,59.5 M271.6,45.1v-3h-2.1h-4.7h0h-5.9v3c0,0.9,0.4,1.4,1.3,1.6   c0.4,0.1,0.4,0.1,1.8,0.4l-2.8,10.2c-0.2,0.8-0.4,1.6-0.6,2.3c-0.2,0.7-0.3,1.5-0.4,2.2c-0.2-0.7-0.4-1.4-0.5-2.1l-0.6-2.1   l-0.4-1.4h-5.1l3.4,11c0.3,0.8,0.6,1.1,1.2,1.1h5.1l6.7-21.1c2.2-0.4,2-0.4,2.4-0.5C271.2,46.5,271.6,46,271.6,45.1"></path>		<path class="st1" d="M256,51.7l-3.3-11c-0.1-0.4-0.3-0.6-0.6-0.8c-0.3-0.2-0.7-0.4-1.1-0.4h-2.8c-0.4,0-0.8,0.2-1.1,0.4   c-0.3,0.2-0.5,0.5-0.6,0.8l-3.4,11h5l0.7-2.1c0.2-0.5,0.3-1,0.4-1.5l0.3-1.5c0.1,0.5,0.2,1,0.3,1.5c0.1,0.5,0.3,1,0.5,1.5l0.7,2.1   H256z"></path>	</g></g></svg>